<svg xmlns="http://www.w3.org/2000/svg" width="50" height="37.288" viewBox="0 0 50 37.288">
    <path data-name="Fill 4" d="M.853 13.571A27.786 27.786 0 0 0 .4 25.1a44.519 44.519 0 0 0 2.664 9.4A8.393 8.393 0 0 0 4.1 36.27a2.763 2.763 0 0 0 3.2.807c.726-.361 1.561-1.233 1.258-3.223a26.69 26.69 0 0 0-.8-3.15 35 35 0 0 1-1.779-7.357c-.113-2.759.963-3.119 1.678-3.279 1.2-.267 2.21 1.067 3.167 2.738 1.143 1.995 3.1 5.53 4.7 8.23a9.127 9.127 0 0 0 8.376 4.869c4.357-.183 7.569-1.862 9.223-7.15a88 88 0 0 1 3.44-9.941c1.561-3.482 3.644-5.345 5.4-4.776 1.629.529 2.035 2.137 2.055 4.5a54.038 54.038 0 0 1-.408 6.091 17.7 17.7 0 0 0-.14 2.538c.1 1.35.676 2.7 2.18 2.913 1.6.229 2.888-1.064 3.4-2.628a14.764 14.764 0 0 0 .468-2.23 40.472 40.472 0 0 0 .381-9.109A32.865 32.865 0 0 0 47.5 5.193C46.195 2.141 44.095.185 41.4.013 38.422-.178 35 1.82 33.208 5.7c-1.654 3.573-2.977 7.242-3.78 9.114-.814 1.9-2.01 3.069-3.849 3.264-2.249.239-4.186-1.41-5.606-3.763a54 54 0 0 0-5-7.265C13.739 5.815 12.331 4.273 9.4 4.319c-2.317.037-6.593 1.192-8.547 9.252z" style="fill:#019df4"/>
</svg>
