<svg width="130" height="90" viewBox="0 0 130 90" fill="none" xmlns="http://www.w3.org/2000/svg">
<path d="M24.4388 10.4291C18.4137 10.5205 7.29774 13.3057 2.21847 32.759C0.00560689 41.2328 -0.848583 50.0723 1.04324 60.5893C2.79175 70.2891 5.88173 78.6608 7.96848 83.2741C8.68508 84.8656 9.80297 86.5217 10.6629 87.5433C13.1395 90.479 17.2556 90.2908 18.9869 89.4897C20.873 88.6186 23.04 86.5163 22.2604 81.7094C21.882 79.3866 20.787 75.9939 20.1679 74.1066C18.2761 68.3158 15.7594 61.3313 15.5415 56.3524C15.2491 49.6959 18.0468 48.8249 19.9042 48.4378C23.0286 47.7925 25.6485 51.0133 28.1422 55.0459C31.1118 59.8581 36.2025 68.3911 40.3588 74.9078C44.1081 80.79 51.0276 87.0862 62.1378 86.6561C73.4658 86.2152 81.8185 82.1611 86.1181 69.3965C89.3342 59.8473 91.5299 52.7123 95.0613 45.4052C99.1201 37.0013 104.538 32.5063 109.095 33.8774C113.332 35.1517 114.387 39.0337 114.438 44.7385C114.484 49.7873 113.859 55.3523 113.378 59.4387C113.2 60.9227 112.885 63.9068 113.016 65.5629C113.274 68.8212 114.776 72.0742 118.686 72.5957C122.854 73.1496 126.196 70.0256 127.532 66.2565C128.059 64.7671 128.506 62.4927 128.747 60.8743C129.974 52.7177 130.289 47.2334 129.739 38.8886C129.091 29.1297 127.056 20.2311 123.507 12.5315C120.108 5.16525 114.65 0.444418 107.651 0.0304042C99.8998 -0.432001 91.0082 4.39099 86.3417 13.7466C82.0421 22.371 78.6024 31.2212 76.5156 35.7431C74.4002 40.3242 71.2873 43.147 66.5062 43.6201C60.6587 44.1955 55.6196 40.2166 51.9276 34.5387C48.7115 29.5921 42.3367 20.1719 38.9256 17.005C35.721 14.037 32.0577 10.3162 24.4388 10.4291Z" fill="#019DF4"/>
</svg>
