<svg xmlns="http://www.w3.org/2000/svg" width="257.203" height="28" viewBox="0 0 257.203 28">
    <g data-name="Grupo 777">
        <path data-name="Términos y Condicion" d="M-42.275-3.482q0 6.351-5.73 6.351-5.489 0-5.489-6.109v-9.222h1.767v9.106q0 4.637 3.912 4.637 3.775 0 3.775-4.479v-9.264h1.767zm12.474 6.1h-1.724v-6.139q0-3.427-2.5-3.427a2.715 2.715 0 0 0-2.14.973 3.606 3.606 0 0 0-.85 2.455v6.14h-1.724V-8.154h1.724v1.787h.042a3.886 3.886 0 0 1 3.534-2.04 3.294 3.294 0 0 1 2.7 1.141 5.082 5.082 0 0 1 .939 3.3zm10.958 0h-1.724V.932h-.04a3.61 3.61 0 0 1-3.313 1.935 3.539 3.539 0 0 1-2.518-.852 2.951 2.951 0 0 1-.921-2.258q0-3.017 3.554-3.512l3.228-.452q0-2.745-2.219-2.745a5.3 5.3 0 0 0-3.512 1.324V-7.4a6.672 6.672 0 0 1 3.658-1.005q3.8 0 3.8 4.022zm-1.724-5.448-2.6.358a4.218 4.218 0 0 0-1.809.595 1.714 1.714 0 0 0-.611 1.508A1.643 1.643 0 0 0-25.02.924a2.173 2.173 0 0 0 1.5.5 2.768 2.768 0 0 0 2.12-.9 3.212 3.212 0 0 0 .836-2.277zM5.594 2.617H3.871V-3.56a4.664 4.664 0 0 0-.552-2.586 2.093 2.093 0 0 0-1.856-.8A2.3 2.3 0 0 0-.414-5.939a3.861 3.861 0 0 0-.779 2.418V2.62h-1.724v-6.4q0-3.176-2.451-3.176A2.27 2.27 0 0 0-7.235-6a3.933 3.933 0 0 0-.74 2.481V2.62H-9.7V-8.154h1.724v1.7h.042a3.659 3.659 0 0 1 3.345-1.951 3.117 3.117 0 0 1 1.925.615 3.094 3.094 0 0 1 1.125 1.614 3.843 3.843 0 0 1 3.575-2.229q3.554 0 3.554 4.384zm10.968 0h-1.724V.932H14.8a3.61 3.61 0 0 1-3.322 1.938 3.54 3.54 0 0 1-2.518-.852 2.951 2.951 0 0 1-.909-2.261q0-3.017 3.554-3.512l3.228-.452q0-2.745-2.219-2.745A5.3 5.3 0 0 0 9.1-5.628V-7.4a6.672 6.672 0 0 1 3.66-1.005q3.8 0 3.8 4.022zM14.838-2.83l-2.6.358a4.218 4.218 0 0 0-1.82.595 1.714 1.714 0 0 0-.607 1.508 1.643 1.643 0 0 0 .563 1.293 2.173 2.173 0 0 0 1.5.5 2.768 2.768 0 0 0 2.119-.9 3.212 3.212 0 0 0 .836-2.277zm10.584-3.575a2.109 2.109 0 0 0-1.3-.348 2.2 2.2 0 0 0-1.85 1.043 4.814 4.814 0 0 0-.741 2.838v5.489h-1.724V-8.157h1.724v2.219h.042A3.759 3.759 0 0 1 22.7-7.7a2.566 2.566 0 0 1 1.692-.635 2.816 2.816 0 0 1 1.03.144zm9.211 8.528a5.6 5.6 0 0 1-2.945.747 4.874 4.874 0 0 1-3.716-1.5 5.43 5.43 0 0 1-1.415-3.879 5.97 5.97 0 0 1 1.526-4.282 5.334 5.334 0 0 1 4.068-1.616 5.664 5.664 0 0 1 2.5.526v1.773a4.384 4.384 0 0 0-2.566-.842 3.468 3.468 0 0 0-2.7 1.179 4.489 4.489 0 0 0-1.059 3.11 4.274 4.274 0 0 0 .992 2.988 3.425 3.425 0 0 0 2.666 1.093 4.322 4.322 0 0 0 2.65-.935zm10.315.494h-1.723V.932h-.042a3.61 3.61 0 0 1-3.314 1.938 3.539 3.539 0 0 1-2.518-.852 2.951 2.951 0 0 1-.909-2.261q0-3.017 3.554-3.512l3.228-.452q0-2.745-2.219-2.745a5.3 5.3 0 0 0-3.512 1.324V-7.4a6.672 6.672 0 0 1 3.657-1.005q3.8 0 3.8 4.022zM43.225-2.83l-2.6.358a4.218 4.218 0 0 0-1.809.595 1.714 1.714 0 0 0-.611 1.508 1.643 1.643 0 0 0 .567 1.293 2.173 2.173 0 0 0 1.5.5 2.768 2.768 0 0 0 2.119-.9 3.212 3.212 0 0 0 .836-2.277zm20.059 5.447H61.56V.788h-.042a3.98 3.98 0 0 1-3.693 2.082 4.022 4.022 0 0 1-3.244-1.447 5.931 5.931 0 0 1-1.221-3.939 6.453 6.453 0 0 1 1.346-4.279A4.439 4.439 0 0 1 58.3-8.4a3.448 3.448 0 0 1 3.228 1.745h.034v-6.667h1.724zM61.56-2.251V-3.84a3.08 3.08 0 0 0-.86-2.208 2.892 2.892 0 0 0-2.188-.9A2.978 2.978 0 0 0 56.028-5.8a5.068 5.068 0 0 0-.9 3.2 4.558 4.558 0 0 0 .857 2.939 2.836 2.836 0 0 0 2.329 1.077 2.945 2.945 0 0 0 2.34-1.041 3.878 3.878 0 0 0 .906-2.626zm13.869-.085h-7.6A4.022 4.022 0 0 0 68.8.441a3.336 3.336 0 0 0 2.544.978A5.291 5.291 0 0 0 74.685.214v1.619a6.25 6.25 0 0 1-3.754 1.03A4.551 4.551 0 0 1 67.34 1.4a6 6 0 0 1-1.3-4.127 5.89 5.89 0 0 1 1.431-4.094A4.568 4.568 0 0 1 71-8.405a4.048 4.048 0 0 1 3.271 1.368 5.7 5.7 0 0 1 1.156 3.8zM73.662-3.8a3.509 3.509 0 0 0-.718-2.324 2.453 2.453 0 0 0-1.972-.83 2.785 2.785 0 0 0-2.071.873A3.96 3.96 0 0 0 67.849-3.8z" transform="translate(53.494 18.057)" style="fill:#fff"/>
        <g data-name="Grupo 775">
            <g data-name="Grupo 774">
                <g data-name="Grupo 773">
                    <g data-name="Grupo 770">
                        <g data-name="Grupo 769">
                            <g data-name="Grupo 764" transform="translate(140.523)">
                                <circle data-name="Elipse 17" cx="4.179" cy="4.179" r="4.179" style="fill:#fff"/>
                            </g>
                            <g data-name="Grupo 765" transform="translate(150.344)">
                                <circle data-name="Elipse 18" cx="4.179" cy="4.179" r="4.179" style="fill:#fff"/>
                            </g>
                            <g data-name="Grupo 766" transform="translate(160.166)">
                                <circle data-name="Elipse 19" cx="4.179" cy="4.179" r="4.179" style="fill:#fff"/>
                            </g>
                            <g data-name="Grupo 767" transform="translate(150.344 9.821)">
                                <circle data-name="Elipse 20" cx="4.179" cy="4.179" r="4.179" style="fill:#fff"/>
                            </g>
                            <g data-name="Grupo 768" transform="translate(150.344 19.643)">
                                <circle data-name="Elipse 21" cx="4.179" cy="4.179" r="4.179" style="fill:#fff"/>
                            </g>
                        </g>
                    </g>
                    <g data-name="Grupo 772">
                        <path data-name="Trazado 760" d="M746.857 494.535h-3.894v-2.318h10.2v2.318h-3.894V505.2h-2.41z" transform="translate(-569.425 -483.79)" style="fill:#fff"/>
                        <path data-name="Trazado 761" d="M830.687 527.685a4.413 4.413 0 0 1-4.358 2.968 4.915 4.915 0 1 1 0-9.831 4.614 4.614 0 0 1 4.637 4.73 5.3 5.3 0 0 1-.056.668l-.037.26h-7.047a2.494 2.494 0 0 0 2.5 2.225 2.162 2.162 0 0 0 1.948-1.02zm-2.04-2.783a2.324 2.324 0 0 0-2.318-2.133 2.494 2.494 0 0 0-2.5 2.133z" transform="translate(-638.808 -509.064)" style="fill:#fff"/>
                        <path data-name="Trazado 762" d="M914.459 492.216h2.318V505.2h-2.318z" transform="translate(-720.911 -483.79)" style="fill:#fff"/>
                        <path data-name="Trazado 763" d="M955.445 527.685a4.413 4.413 0 0 1-4.358 2.968 4.915 4.915 0 1 1 0-9.831 4.614 4.614 0 0 1 4.637 4.73 5.3 5.3 0 0 1-.056.668l-.037.26h-7.047a2.494 2.494 0 0 0 2.5 2.225 2.162 2.162 0 0 0 1.948-1.02zm-2.04-2.783a2.324 2.324 0 0 0-2.318-2.133 2.492 2.492 0 0 0-2.5 2.133z" transform="translate(-749.009 -509.064)" style="fill:#fff"/>
                        <path data-name="Trazado 764" d="M1033.64 496.562h-1.58v-2.225h1.58v-1.39a2.172 2.172 0 0 1 2.318-2.319H1038v2.04h-1.391a.634.634 0 0 0-.649.649v1.02h2.04v2.225h-2.04v7.233h-2.318z" transform="translate(-824.793 -482.387)" style="fill:#fff"/>
                        <path data-name="Trazado 765" d="M1095.54 525.741a4.822 4.822 0 1 1-4.822-4.914 4.7 4.7 0 0 1 4.822 4.914zm-2.318 0a2.518 2.518 0 1 0-2.5 2.783 2.568 2.568 0 0 0 2.5-2.783z" transform="translate(-872.352 -509.063)" style="fill:#fff"/>
                        <path data-name="Trazado 766" d="M1180.47 521.012h2.133l.185.928h.092a3.061 3.061 0 0 1 .63-.556 3.54 3.54 0 0 1 1.966-.557 3.683 3.683 0 0 1 3.709 3.988v5.657h-2.318V525a2.04 2.04 0 0 0-4.08 0v5.472h-2.319z" transform="translate(-955.882 -509.063)" style="fill:#fff"/>
                        <path data-name="Trazado 767" d="M1311.467 526.948a4.385 4.385 0 0 1-4.453 3.709 4.915 4.915 0 1 1 0-9.831 4.4 4.4 0 0 1 4.453 3.618h-2.319a2.154 2.154 0 0 0-2.133-1.484 2.8 2.8 0 0 0 0 5.563 2.1 2.1 0 0 0 2.133-1.58z" transform="translate(-1063.413 -509.064)" style="fill:#fff"/>
                        <path data-name="Trazado 768" d="M1394.688 529.549h-.093a2.76 2.76 0 0 1-.65.556 3.727 3.727 0 0 1-2.041.556 3.054 3.054 0 0 1-3.43-2.873c0-1.855 1.293-3.153 3.894-3.153h2.133v-.185a1.613 1.613 0 0 0-1.669-1.763 1.58 1.58 0 0 0-1.67 1.205h-2.318a3.637 3.637 0 0 1 3.988-3.06 3.676 3.676 0 0 1 3.988 3.617v6.033h-1.948zm-.185-3.153h-1.948c-1.205 0-1.763.464-1.763 1.205s.539 1.205 1.484 1.205a2.011 2.011 0 0 0 2.225-2.133z" transform="translate(-1139.617 -509.069)" style="fill:#fff"/>
                        <path data-name="Trazado 769" d="M1270.392 522.417h2.312v9.456h-2.318z" transform="translate(-1035.312 -510.467)" style="fill:#fff"/>
                        <g data-name="Grupo 771" transform="translate(234.863 7.846)">
                            <circle data-name="Elipse 22" cx="1.372" cy="1.372" r="1.372" style="fill:#fff"/>
                        </g>
                        <path data-name="Trazado 770" d="M1121.045 488.242h2.412l-2.225 2.689h-1.948z" transform="translate(-901.834 -480.28)" style="fill:#fff"/>
                    </g>
                </g>
            </g>
        </g>
    </g>
</svg>
