<svg xmlns="http://www.w3.org/2000/svg" width="30" height="30" viewBox="0 0 30 30">
    <g data-name="Grupo 2340">
        <path data-name="Movil pausa_2Regular" d="M28.143 24.374V5.626a3.887 3.887 0 0 0-.913-2.877 3.962 3.962 0 0 0-2.911-.909h-9.46a3.928 3.928 0 0 0-2.9.931 3.868 3.868 0 0 0-.922 2.856v.763c4.469.623 7.026 3.479 7.026 8.815s-2.548 8.183-7.013 8.81v.9a3.475 3.475 0 0 0 .9 2.343 3.981 3.981 0 0 0 2.9.9h9.464a3.988 3.988 0 0 0 2.9-.9 3.859 3.859 0 0 0 .929-2.884zM9.028 22.308c4.9 0 7.176-2.258 7.176-7.107s-2.28-7.112-7.176-7.112-7.171 2.258-7.171 7.111 2.279 7.108 7.171 7.108zM28.544 1.451A5.586 5.586 0 0 1 30 5.622v18.752a5.565 5.565 0 0 1-1.468 4.2A5.732 5.732 0 0 1 24.318 30h-9.459a5.708 5.708 0 0 1-4.209-1.43 5.256 5.256 0 0 1-1.45-3.594v-.837h-.171C3.325 24.148 0 21.3 0 15.2s3.325-8.942 9.028-8.942h.154v-.632a5.576 5.576 0 0 1 1.456-4.145A5.644 5.644 0 0 1 14.859 0h9.464a5.685 5.685 0 0 1 4.221 1.451zm-8.956 21.1a1.469 1.469 0 0 1 1.6 1.6 1.576 1.576 0 0 1-.418 1.157 1.835 1.835 0 0 1-2.373 0 1.583 1.583 0 0 1-.418-1.157 1.479 1.479 0 0 1 1.609-1.6z" style="fill-rule:evenodd;fill:#fff"/>
        <path d="M9.215 8.409a.582.582 0 0 1-.822.822L4.685 5.522l-3.7 3.7a.576.576 0 0 1-.411.169.587.587 0 0 1-.41-.171.58.58 0 0 1 0-.822l3.7-3.7L.168 1A.579.579 0 0 1 .987.183l3.7 3.7L8.393.17a.582.582 0 0 1 .822.822L5.5 4.7l3.714 3.709z" transform="translate(4.252 10.704)" style="fill:#fff"/>
    </g>
</svg>
