<svg xmlns="http://www.w3.org/2000/svg" width="16" height="11.334" viewBox="0 0 16 11.334">
    <path data-name="Mail correo_2Regular" d="M15.015 113.166a.8.8 0 0 1-.574.187c-1.23.02-12.812 0-12.94 0a.431.431 0 0 1-.241-.112.863.863 0 0 1-.175-.6v-7.081l5.553 3.491a2.473 2.473 0 0 0 1.35.417 2.3 2.3 0 0 0 1.271-.394l5.865-3.534-.009 7.1.007.077a.656.656 0 0 1-.107.444m-13.5-9.194h13.22c.011 0 .278.009.367.449L8.74 108.25a1.384 1.384 0 0 1-1.544-.007l-6.096-3.82a.706.706 0 0 1 .146-.364.341.341 0 0 1 .262-.087m14.584 8.641.011-7.946c-.036-1.391-1-1.687-1.387-1.664L1.513 103a1.309 1.309 0 0 0-.977.4 1.857 1.857 0 0 0-.428 1.282v7.965a1.724 1.724 0 0 0 .469 1.291 1.354 1.354 0 0 0 .936.389c.314 0 5.3.011 9.017.011 1.924 0 3.509 0 3.93-.011a1.658 1.658 0 0 0 1.316-.542 1.577 1.577 0 0 0 .319-1.168" transform="translate(-.106 -103)" style="fill:#0b2739;fill-rule:evenodd"/>
</svg>
