<svg xmlns="http://www.w3.org/2000/svg" width="30" height="21.703" viewBox="0 0 30 21.703">
    <path data-name="Trazado 1774" d="M20.369 116.348H5.815A4.831 4.831 0 0 1 2 114.872a5.823 5.823 0 0 1-1.2-3.935v-7.525A5.845 5.845 0 0 1 2 99.477 4.81 4.81 0 0 1 5.815 98h15.373A4.831 4.831 0 0 1 25 99.477a5.823 5.823 0 0 1 1.2 3.935v.862a.854.854 0 0 1-1.707 0v-.862a4.217 4.217 0 0 0-.781-2.813 3.166 3.166 0 0 0-2.527-.9H5.815a3.166 3.166 0 0 0-2.527.9 4.24 4.24 0 0 0-.781 2.813v7.525a4.217 4.217 0 0 0 .781 2.813 3.166 3.166 0 0 0 2.527.9h14.554a.851.851 0 1 1 0 1.7zM17.04 119.7H9.549a.854.854 0 1 1 0-1.707h7.49a.854.854 0 1 1 0 1.707z" transform="translate(-.8 -98)" style="fill:#fff"/>
    <path data-name="Trazado 1775" d="M456.865 241.374h-4.473a2.855 2.855 0 0 1-3.192-3.192v-9.889a2.881 2.881 0 0 1 3.192-3.192h4.477a2.855 2.855 0 0 1 3.193 3.192v9.889a2.859 2.859 0 0 1-3.197 3.192zm-4.473-14.574c-1.11 0-1.485.376-1.485 1.485v9.889a1.215 1.215 0 0 0 1.49 1.49h4.477a1.215 1.215 0 0 0 1.49-1.49v-9.885c0-1.14-.346-1.485-1.485-1.485h-4.486z" transform="translate(-430.062 -219.675)" style="fill:#fff"/>
    <g data-name="Grupo 2316">
        <path data-name="Trazado 1776" d="M560.413 498.5a.645.645 0 0 0-.713.717.714.714 0 1 0 1.425 0 .646.646 0 0 0-.712-.717z" transform="translate(-535.846 -481.406)" style="fill:#fff"/>
        <path data-name="Trazado 1777" d="M550.84 490.883a1.12 1.12 0 0 1-.837-.316 1.137 1.137 0 0 1-.3-.824 1.14 1.14 0 1 1 2.279 0 1.119 1.119 0 0 1-.3.824 1.137 1.137 0 0 1-.842.316zm0-1.434c-.222 0-.286.064-.286.29a.29.29 0 1 0 .572 0c0-.226-.064-.29-.286-.29z" transform="translate(-526.273 -471.929)" style="fill:#fff"/>
    </g>
</svg>
