<svg xmlns="http://www.w3.org/2000/svg" width="97.723" height="93.282" viewBox="0 0 97.723 93.282">
    <defs>
        <clipPath id="k70dm2t43a">
            <path data-name="Trazado 1787" d="M0 0h75.883v42.047H0z"/>
        </clipPath>
        <clipPath id="ikefapa6qb">
            <path data-name="Trazado 1790" d="M0 0h4.191v3.175H0z"/>
        </clipPath>
    </defs>
    <g data-name="Grupo 2323" transform="translate(-515.277 102.282)">
        <ellipse data-name="Elipse 6" cx="48" cy="3" rx="48" ry="3" transform="translate(517 -15)" style="fill:rgba(11,39,57,.15)"/>
        <path d="M0 1.387A2.564 2.564 0 0 1 1.917.03c1.264-.067 12.454 0 12.454 0l-1.038 1.357z" transform="translate(582.358 -68.029)" style="fill:#1a3042"/>
        <path data-name="Path" d="M83.633 46.625H1.393A1.389 1.389 0 0 1 0 45.24V1.385A1.389 1.389 0 0 1 1.393 0h82.24a1.389 1.389 0 0 1 1.393 1.385V45.24a1.39 1.39 0 0 1-1.393 1.385z" transform="translate(524.829 -102.282)" style="fill:#22455e"/>
        <path data-name="Path" d="m80.534 1.116-.115 40.262a.9.9 0 0 1-.9.89L.9 42.046a.9.9 0 0 1-.9-.9L.116.889a.9.9 0 0 1 .9-.889l78.623.221a.9.9 0 0 1 .895.9z" transform="translate(527.075 -100.104)" style="fill:#cadeea"/>
        <path data-name="Trazado 1784" d="M0 0h16.878v4.514H0z" transform="translate(558.904 -55.867)" style="fill:#0b2739"/>
        <path data-name="Path" d="M23.631 1.2H.594A.593.593 0 0 1 0 .606V.59A.592.592 0 0 1 .594 0h23.037a.592.592 0 0 1 .594.59v.016a.593.593 0 0 1-.594.594z" transform="translate(555.23 -51.353)" style="fill:#0b2739"/>
        <g style="opacity:.4">
            <g data-name="Group" transform="translate(531.669 -99.993)" style="clip-path:url(#k70dm2t43a)">
                <g style="clip-path:url(#k70dm2t43a)">
                    <path data-name="Path" d="M58.42 0 12.342 41.948H0L46.077 0z" style="fill:#fff"/>
                </g>
                <g data-name="Clipped">
                    <g data-name="SVGID_3_" style="clip-path:url(#k70dm2t43a)">
                        <path data-name="Path" d="M49.657 0v2.363L6.172 42.047H0L46.078 0z" transform="translate(26.226)" style="fill:#fff"/>
                    </g>
                </g>
            </g>
        </g>
        <path data-name="Path" d="M1.039.517A.52.52 0 1 1 .52 0a.52.52 0 0 1 .519.517z" transform="translate(603.236 -57.249)" style="fill:#22455e"/>
        <path d="M0 0h77.308v19.471H0z" transform="translate(528.445 -48.654)" style="fill:#0b2739"/>
        <path data-name="Path" d="M0 0v5.833h79.435v12.381L.736 18.3v10.906l84.449-.019V0z" transform="translate(522.36 -49.871)" style="fill:#0f6ea8"/>
        <path data-name="Path" d="M0 8.519h4.76L7.3 0H.847z" transform="translate(591.725 -20.664)" style="fill:#0b2739"/>
        <path data-name="Path" d="m5.379 0 .7 8.519H2.118L0 0" transform="translate(529.661 -20.664)" style="fill:#0b2739"/>
        <g data-name="Group">
            <path data-name="Path" d="M18.384.118H0" transform="translate(564.589 -41.206)" style="fill:#983230"/>
            <path data-name="Rectangle" d="M0 0h43.563v4.8H0z" transform="translate(552 -39.47)" style="fill:#323336"/>
            <g data-name="Group">
                <path data-name="Path" d="M45.183 7.783H.719A.728.728 0 0 1 0 7.045V.738A.729.729 0 0 1 .719 0h44.464a.729.729 0 0 1 .72.738v6.307a.729.729 0 0 1-.72.738z" transform="translate(550.83 -45.929)" style="fill:#fff"/>
                <path data-name="Path" d="M45.086 4.386H.815A.826.826 0 0 1 0 3.549V.837A.826.826 0 0 1 .815 0h44.271a.827.827 0 0 1 .814.837v2.712a.827.827 0 0 1-.814.837z" transform="translate(550.83 -36.076)" style="fill:#51545b"/>
                <path data-name="Path" d="M.435.319h-.28A.157.157 0 0 1 0 .16.157.157 0 0 1 .155 0h.28A.157.157 0 0 1 .59.16a.157.157 0 0 1-.155.159z" transform="translate(554.023 -35.284)" style="fill:#323336"/>
                <path data-name="Path" d="M.339.319H.155A.157.157 0 0 1 0 .16.157.157 0 0 1 .155 0h.184a.158.158 0 0 1 .155.16.157.157 0 0 1-.155.159z" transform="translate(554.915 -35.284)" style="fill:#323336"/>
                <path data-name="Trazado 1789" d="M36.781 1.319H36.6c-.086 0-.156-.3-.156-.658S36.512 0 36.6 0h.183c.086 0 .156.3.156.661s-.072.658-.158.658zm-.8 0h-.552c-.084 0-.156-.3-.156-.658S35.349 0 35.434 0h.552c.086 0 .156.3.156.661s-.071.658-.157.658zm-1.163 0h-.185c-.086 0-.156-.3-.156-.658s.074-.661.16-.661h.185c.085 0 .154.3.154.661a1.215 1.215 0 0 1-.118.641.052.052 0 0 1-.036.017zm-.8 0h-.552c-.085 0-.154-.3-.154-.658S33.389 0 33.474 0h.552c.086 0 .156.3.156.661s-.071.658-.157.658zm-1.163 0h-.183c-.086 0-.156-.3-.156-.658S32.593 0 32.679 0h.183c.085 0 .154.3.154.661s-.069.658-.154.658zm-.8 0h-.55c-.086 0-.157-.3-.157-.658S31.429 0 31.515 0h.55c.086 0 .156.3.156.661s-.07.658-.155.658zm-1.163 0h-.185c-.085 0-.154-.3-.154-.658s.08-.661.165-.661h.182c.086 0 .156.3.156.661s-.068.658-.156.658zm-.8 0h-.551c-.086 0-.156-.3-.156-.658S29.469 0 29.554 0h.551c.085 0 .154.3.154.661a1.215 1.215 0 0 1-.118.641.051.051 0 0 1-.035.017zm-1.164 0h-.183c-.086 0-.156-.3-.156-.658S28.672 0 28.758 0h.183c.086 0 .156.3.156.661s-.07.658-.156.658zm-.8 0h-.551c-.085 0-.154-.3-.154-.658S27.508 0 27.594 0h.551c.086 0 .156.3.156.661s-.07.658-.156.658zm-1.163 0H26.8c-.086 0-.156-.3-.156-.658S26.713 0 26.8 0h.183c.086 0 .156.3.156.661s-.071.658-.157.658zm-.8 0h-.551c-.085 0-.154-.3-.154-.658S25.549 0 25.634 0h.551c.086 0 .156.3.156.661s-.07.658-.156.658zm-1.165 0h-.183c-.086 0-.156-.3-.156-.658S24.753 0 24.839 0h.183c.086 0 .156.3.156.661s-.07.658-.156.658zm-.8 0h-.551c-.085 0-.154-.3-.154-.658S23.589 0 23.674 0h.551c.086 0 .156.3.156.661s-.07.658-.155.658zm-1.164 0h-.183c-.085 0-.154-.3-.154-.658S22.793 0 22.878 0h.183c.086 0 .156.3.156.661a1.191 1.191 0 0 1-.119.64.053.053 0 0 1-.037.018zm-.8 0h-.551c-.085 0-.154-.3-.154-.658s.1-.661.182-.661h.551c.086 0 .156.3.156.661s-.07.658-.156.658zm-1.164 0h-.182c-.086 0-.156-.3-.156-.658s.1-.661.183-.661h.183c.086 0 .157.3.157.661s-.069.658-.157.658zm-.8 0h-.551c-.085 0-.154-.3-.154-.658S19.67 0 19.755 0h.551c.086 0 .156.3.156.661s-.07.658-.156.658zm-1.163 0h-.149c-.086 0-.156-.3-.156-.658S18.874 0 18.96 0h.183c.085 0 .154.3.154.661s-.069.658-.154.658zm-.8 0H17.8c-.086 0-.156-.3-.156-.658S17.709 0 17.8 0h.55c.086 0 .157.3.157.661s-.075.658-.162.658zm-1.163 0H17c-.086 0-.156-.3-.156-.658S16.913 0 17 0h.183c.086 0 .156.3.156.661a1.209 1.209 0 0 1-.119.64.052.052 0 0 1-.038.018zm-.8 0H15.8c-.086 0-.156-.3-.156-.658S15.75 0 15.835 0h.551c.085 0 .154.3.154.661s-.068.658-.153.658zm-1.164 0H15c-.086 0-.156-.3-.156-.658S14.953 0 15.039 0h.183c.086 0 .156.3.156.661s-.07.658-.156.658zm-.8 0h-.552c-.086 0-.156-.3-.156-.658S13.79 0 13.876 0h.552c.084 0 .156.3.156.661s-.072.658-.157.658zm-1.164 0h-.183c-.086 0-.156-.3-.156-.658s.113-.661.2-.661h.183c.086 0 .156.3.156.661s-.069.658-.155.658zm-.8 0h-.55c-.086 0-.156-.3-.156-.658S11.83 0 11.916 0h.55c.086 0 .156.3.156.661s-.07.658-.156.658zm-1.163 0h-.185c-.085 0-.154-.3-.154-.658s.115-.661.2-.661h.184c.085 0 .154.3.154.661a1.215 1.215 0 0 1-.118.641.051.051 0 0 1-.036.017zm-.8 0h-.5c-.085 0-.154-.3-.154-.658S9.87 0 9.955 0h.551c.086 0 .156.3.156.661s-.07.658-.155.658zm-1.163 0H9.16c-.086 0-.156-.3-.156-.658S9.074 0 9.16 0h.183c.086 0 .157.3.157.661s-.071.658-.157.658zm-.8 0H8c-.086 0-.156-.3-.156-.658S7.91 0 8 0h.55c.082 0 .15.3.15.661s-.068.658-.154.658zm-1.162 0H7.2c-.084 0-.156-.3-.156-.658S7.115 0 7.2 0h.185c.086 0 .156.3.156.661s-.072.658-.157.658zm-.8 0h-.5c-.086 0-.156-.3-.156-.658S5.95 0 6.036 0h.551c.085 0 .154.3.154.661s-.069.658-.154.658zm-1.164 0h-.127c-.086 0-.156-.3-.156-.658S5.154 0 5.239 0h.183c.086 0 .156.3.156.661a1.21 1.21 0 0 1-.119.64.052.052 0 0 1-.036.018zm-.8 0h-.491c-.085 0-.154-.3-.154-.658S3.99 0 4.075 0h.553c.085 0 .154.3.154.661s-.069.658-.154.658zm-1.164 0H3.28c-.086 0-.156-.3-.156-.658S3.194 0 3.28 0h.183c.086 0 .156.3.156.661s-.07.658-.156.658zm-.8 0h-.486c-.086 0-.156-.3-.156-.658S2.031 0 2.116 0h.551c.085 0 .154.3.154.661s-.068.658-.153.658zm-1.164 0H1.32c-.086 0-.156-.3-.156-.658S1.234 0 1.32 0h.18c.086 0 .156.3.156.661s-.067.658-.156.658zm-.8 0H.157C.07 1.319 0 1.024 0 .661S.07 0 .157 0h.55c.086 0 .156.3.156.661s-.07.658-.156.658z" transform="translate(555.71 -35.284)" style="fill:#323336"/>
                <path data-name="Path" d="M.435.319H.156A.157.157 0 0 1 0 .16.157.157 0 0 1 .156 0h.279A.157.157 0 0 1 .59.16a.157.157 0 0 1-.155.159z" transform="translate(592.949 -35.284)" style="fill:#323336"/>
                <path data-name="Path" d="M.435.319h-.28A.158.158 0 0 1 0 .159.157.157 0 0 1 .155 0h.28a.158.158 0 0 1 .156.159.158.158 0 0 1-.156.16z" transform="translate(554.426 -34.455)" style="fill:#323336"/>
                <path data-name="Path" d="M.346.319h-.19A.158.158 0 0 1 0 .159.157.157 0 0 1 .156 0h.19A.157.157 0 0 1 .5.159a.158.158 0 0 1-.154.16z" transform="translate(555.337 -34.455)" style="fill:#323336"/>
                <path d="M35.911 1.319h-.189c-.086 0-.156-.3-.156-.659s.07-.66.155-.66h.189c.086 0 .156.3.156.659s-.066.66-.155.66zm-.821 0h-.569c-.086 0-.156-.3-.156-.659s.07-.66.156-.66h.569c.086 0 .156.3.156.659s-.072.66-.156.66zm-1.2 0h-.19c-.085 0-.154-.3-.154-.659S33.614 0 33.7 0h.19c.085 0 .154.3.154.659s-.069.66-.154.66zm-.822 0H32.5c-.086 0-.156-.3-.156-.659s.07-.66.156-.66h.568c.086 0 .156.3.156.659s-.071.66-.156.66zm-1.2 0h-.189c-.085 0-.154-.3-.154-.659s.068-.66.153-.66h.189c.086 0 .156.3.156.659a1.212 1.212 0 0 1-.12.642.052.052 0 0 1-.036.018zm-.821 0h-.569c-.084 0-.156-.3-.156-.659s.07-.66.155-.66h.569c.086 0 .156.3.156.659s-.07.66-.156.66zm-1.2 0h-.189c-.086 0-.156-.3-.156-.659s.069-.66.155-.66h.189c.086 0 .156.3.156.659s-.07.66-.156.66zm-.821 0h-.569c-.086 0-.156-.3-.156-.659s.069-.66.155-.66h.569c.086 0 .156.3.156.659s-.07.66-.156.66zm-1.2 0h-.189c-.086 0-.156-.3-.156-.659s.069-.66.154-.66h.189c.086 0 .156.3.156.659s-.07.66-.155.66zm-.821 0h-.569c-.086 0-.156-.3-.156-.659s.069-.66.155-.66H27c.086 0 .156.3.156.659s-.068.66-.156.66zm-1.2 0h-.19c-.085 0-.154-.3-.154-.659s.067-.66.152-.66h.19c.086 0 .156.3.156.659s-.07.66-.159.66zm-.821 0h-.569c-.086 0-.156-.3-.156-.659s.069-.66.155-.66h.569c.085 0 .154.3.154.659s-.069.66-.154.66zm-1.2 0H23.6c-.084 0-.156-.3-.156-.659s.067-.66.153-.66h.189c.086 0 .156.3.156.659s-.07.66-.156.66zm-.821 0h-.569c-.085 0-.154-.3-.154-.659s.066-.66.151-.66h.569c.086 0 .156.3.156.659s-.07.66-.156.66zm-1.2 0h-.189c-.086 0-.156-.3-.156-.659s.067-.66.153-.66h.189c.086 0 .156.3.156.659s-.07.66-.156.66zm-.821 0h-.568c-.086 0-.156-.3-.156-.659s.068-.66.153-.66h.568c.086 0 .156.3.156.659s-.07.66-.156.66zm-1.2 0h-.189c-.086 0-.156-.3-.156-.659s.067-.66.152-.66h.189c.086 0 .156.3.156.659s-.07.66-.155.66zm-.821 0h-.569c-.086 0-.156-.3-.156-.659s.067-.66.153-.66h.569c.086 0 .156.3.156.659s-.074.66-.156.66zm-1.2 0h-.189c-.086 0-.156-.3-.156-.659s.066-.66.152-.66h.189c.086 0 .156.3.156.659s-.073.66-.156.66zm-.822 0h-.568c-.086 0-.156-.3-.156-.659s.067-.66.153-.66h.572c.086 0 .156.3.156.659a1.214 1.214 0 0 1-.119.641.052.052 0 0 1-.037.019zm-1.2 0h-.189c-.086 0-.156-.3-.156-.659s.067-.66.153-.66h.193c.086 0 .156.3.156.659s-.074.66-.156.66zm-.821 0h-.569c-.086 0-.156-.3-.156-.659s.068-.66.153-.66h.569c.085 0 .154.3.154.659s-.069.66-.154.66zm-1.2 0h-.189c-.086 0-.156-.3-.156-.659S13.4 0 13.484 0h.189c.086 0 .156.3.156.659a1.214 1.214 0 0 1-.119.641.052.052 0 0 1-.036.019zm-.821 0h-.568c-.086 0-.157-.3-.157-.659S12.2 0 12.285 0h.568c.086 0 .156.3.156.659s-.07.66-.156.66zm-1.2 0h-.189c-.086 0-.156-.3-.156-.659s.065-.66.151-.66h.189c.086 0 .156.3.156.659s-.07.66-.155.66zm-.821 0h-.569c-.086 0-.156-.3-.156-.659s.066-.66.152-.66h.569c.086 0 .156.3.156.659s-.072.66-.156.66zm-1.2 0h-.194c-.086 0-.156-.3-.156-.659s.07-.66.156-.66h.189c.086 0 .156.3.156.659s-.07.66-.156.66zm-.822 0H8.24c-.085 0-.154-.3-.154-.659S8.155 0 8.24 0h.569c.086 0 .157.3.157.659s-.066.66-.157.66zm-1.2 0H7.42c-.086 0-.156-.3-.156-.659S7.334 0 7.42 0h.189c.086 0 .156.3.156.659a1.214 1.214 0 0 1-.119.641.052.052 0 0 1-.037.019zm-.82 0H6.22c-.086 0-.156-.3-.156-.659S6.135 0 6.22 0h.569c.085 0 .154.3.154.659s-.069.66-.154.66zm-1.2 0H5.4c-.085 0-.154-.3-.154-.659S5.313 0 5.4 0h.189c.086 0 .157.3.157.659s-.072.66-.158.66zm-.821 0H4.2c-.086 0-.156-.3-.156-.659S4.112 0 4.2 0h.569c.086 0 .156.3.156.659s-.072.66-.158.66zm-1.2 0h-.2c-.086 0-.156-.3-.156-.659s.074-.66.16-.66h.189c.086 0 .156.3.156.659s-.07.66-.156.66zm-.821 0h-.575c-.085 0-.154-.3-.154-.659S2.092 0 2.177 0h.569c.085 0 .154.3.154.659s-.069.66-.154.66zm-1.2 0h-.2c-.086 0-.156-.3-.156-.659S1.27 0 1.356 0h.189c.086 0 .155.3.155.659s-.069.66-.155.66zm-.821 0H.154c-.085 0-.154-.3-.154-.66S.069 0 .154 0h.57C.81 0 .88.3.88.659s-.07.66-.156.66z" transform="translate(556.158 -34.456)" style="fill:#323336"/>
                <path data-name="Path" d="M.436.319H.155A.158.158 0 0 1 0 .159.158.158 0 0 1 .155 0h.281a.157.157 0 0 1 .155.159.157.157 0 0 1-.155.16z" transform="translate(592.545 -34.455)" style="fill:#323336"/>
                <path data-name="Path" d="M.435.319h-.28A.157.157 0 0 1 0 .159.157.157 0 0 1 .155 0h.28A.157.157 0 0 1 .59.159a.157.157 0 0 1-.155.16z" transform="translate(554.023 -33.627)" style="fill:#323336"/>
                <path data-name="Path" d="M.339.319H.155A.157.157 0 0 1 0 .159.157.157 0 0 1 .155 0h.184a.157.157 0 0 1 .155.159.158.158 0 0 1-.155.16z" transform="translate(554.915 -33.627)" style="fill:#323336"/>
                <path data-name="Shape" d="M36.781 1.318H36.6c-.086 0-.156-.3-.156-.659S36.512 0 36.6 0h.183c.086 0 .156.3.156.658s-.072.66-.158.66zm-.8 0h-.552c-.086 0-.156-.3-.156-.659S35.348 0 35.434 0h.552c.086 0 .156.3.156.658s-.071.66-.157.66zm-1.163 0h-.185c-.086 0-.156-.3-.156-.659s.074-.659.16-.659h.185c.085 0 .154.3.154.658a1.2 1.2 0 0 1-.118.642.051.051 0 0 1-.036.018zm-.8 0h-.552c-.085 0-.154-.3-.154-.659S33.389 0 33.474 0h.552c.086 0 .156.3.156.658s-.071.66-.157.66zm-1.163 0h-.183c-.086 0-.156-.3-.156-.659S32.593 0 32.679 0h.183c.085 0 .154.3.154.658s-.069.66-.154.66zm-.8 0h-.55c-.086 0-.157-.3-.157-.659S31.429 0 31.515 0h.55c.086 0 .156.3.156.658s-.07.66-.155.66zm-1.163 0h-.185c-.085 0-.154-.3-.154-.659s.08-.659.165-.659h.182c.086 0 .156.3.156.658s-.068.66-.156.66zm-.8 0h-.551c-.086 0-.156-.3-.156-.659S29.469 0 29.554 0h.551c.085 0 .154.3.154.658a1.2 1.2 0 0 1-.118.642.051.051 0 0 1-.035.018zm-1.164 0h-.183c-.086 0-.156-.3-.156-.659S28.672 0 28.758 0h.183c.086 0 .156.3.156.658s-.07.66-.156.66zm-.8 0h-.551c-.085 0-.154-.3-.154-.659S27.508 0 27.594 0h.551c.086 0 .156.3.156.658s-.07.66-.156.66zm-1.163 0H26.8c-.086 0-.156-.3-.156-.659S26.713 0 26.8 0h.183c.086 0 .156.3.156.658s-.071.66-.157.66zm-.8 0h-.551c-.085 0-.154-.3-.154-.659S25.549 0 25.634 0h.551c.086 0 .156.3.156.658s-.07.66-.156.66zm-1.165 0h-.183c-.086 0-.156-.3-.156-.659S24.753 0 24.839 0h.183c.086 0 .156.3.156.658s-.07.66-.156.66zm-.8 0h-.551c-.085 0-.154-.3-.154-.659S23.589 0 23.674 0h.551c.086 0 .156.3.156.658s-.07.66-.155.66zm-1.164 0h-.183c-.085 0-.154-.3-.154-.659S22.793 0 22.878 0h.183c.086 0 .156.3.156.658a1.194 1.194 0 0 1-.117.642.053.053 0 0 1-.039.018zm-.8 0h-.551c-.085 0-.154-.3-.154-.659s.1-.659.182-.659h.551c.086 0 .156.3.156.658s-.07.66-.156.66zm-1.164 0h-.182c-.086 0-.156-.3-.156-.659s.1-.659.183-.659h.183c.086 0 .157.3.157.658s-.069.66-.157.66zm-.8 0h-.551c-.085 0-.154-.3-.154-.659S19.67 0 19.755 0h.551c.086 0 .156.3.156.658s-.07.66-.156.66zm-1.163 0h-.149c-.086 0-.156-.3-.156-.659S18.874 0 18.96 0h.183c.085 0 .154.3.154.658s-.069.66-.154.66zm-.8 0H17.8c-.086 0-.156-.3-.156-.659S17.709 0 17.8 0h.55c.086 0 .157.3.157.658s-.075.66-.162.66zm-1.163 0H17c-.086 0-.156-.3-.156-.659S16.913 0 17 0h.183c.086 0 .156.3.156.658a1.212 1.212 0 0 1-.119.642.052.052 0 0 1-.038.018zm-.8 0H15.8c-.086 0-.156-.3-.156-.659S15.75 0 15.835 0h.551c.085 0 .154.3.154.658s-.068.66-.153.66zm-1.164 0H15c-.086 0-.156-.3-.156-.659S14.953 0 15.039 0h.183c.086 0 .156.3.156.658s-.07.66-.156.66zm-.8 0h-.552c-.086 0-.156-.3-.156-.659S13.79 0 13.876 0h.552c.086 0 .156.3.156.658s-.071.66-.157.66zm-1.164 0h-.183c-.086 0-.156-.3-.156-.659s.113-.659.2-.659h.183c.086 0 .156.3.156.658s-.069.66-.155.66zm-.8 0h-.55c-.086 0-.156-.3-.156-.659S11.83 0 11.916 0h.55c.086 0 .156.3.156.658s-.07.66-.156.66zm-1.163 0h-.185c-.085 0-.154-.3-.154-.659s.115-.659.2-.659h.184c.085 0 .154.3.154.658a1.2 1.2 0 0 1-.118.642.051.051 0 0 1-.036.018zm-.8 0h-.5c-.085 0-.154-.3-.154-.659S9.87 0 9.955 0h.551c.086 0 .156.3.156.658s-.07.66-.155.66zm-1.163 0H9.16c-.086 0-.156-.3-.156-.659S9.074 0 9.16 0h.183c.086 0 .157.3.157.658s-.071.66-.157.66zm-.8 0H8c-.086 0-.156-.3-.156-.659S7.91 0 8 0h.55c.082 0 .15.3.15.658s-.068.66-.154.66zm-1.162 0H7.2c-.086 0-.156-.3-.156-.659S7.113 0 7.2 0h.185c.086 0 .156.3.156.658s-.072.66-.157.66zm-.8 0h-.5c-.086 0-.156-.3-.156-.659S5.95 0 6.036 0h.551c.085 0 .154.3.154.658s-.069.66-.154.66zm-1.164 0h-.127c-.086 0-.156-.3-.156-.659S5.154 0 5.239 0h.183c.086 0 .156.3.156.658a1.212 1.212 0 0 1-.119.642.052.052 0 0 1-.036.018zm-.8 0h-.491c-.085 0-.154-.3-.154-.659S3.99 0 4.075 0h.553c.085 0 .154.3.154.658s-.069.66-.154.66zm-1.164 0H3.28c-.086 0-.156-.3-.156-.659S3.194 0 3.28 0h.183c.086 0 .156.3.156.658s-.07.66-.156.66zm-.8 0h-.486c-.086 0-.156-.3-.156-.659S2.031 0 2.116 0h.551c.085 0 .154.3.154.658s-.068.66-.153.66zm-1.164 0H1.32c-.086 0-.156-.3-.156-.659S1.234 0 1.32 0h.18c.086 0 .156.3.156.658s-.067.66-.156.66zm-.8 0H.157C.07 1.318 0 1.022 0 .658S.07 0 .157 0h.55c.086 0 .156.3.156.658s-.07.66-.156.66z" transform="translate(555.71 -33.627)" style="fill:#323336"/>
                <path data-name="Path" d="M.435.319H.156A.157.157 0 0 1 0 .159.157.157 0 0 1 .156 0h.279A.157.157 0 0 1 .59.159a.157.157 0 0 1-.155.16z" transform="translate(592.949 -33.627)" style="fill:#323336"/>
                <path data-name="Path" d="M.435.319h-.28A.157.157 0 0 1 0 .16.158.158 0 0 1 .155 0h.28a.158.158 0 0 1 .156.16.158.158 0 0 1-.156.159z" transform="translate(554.426 -32.8)" style="fill:#323336"/>
                <path data-name="Path" d="M.346.319h-.19A.157.157 0 0 1 0 .16.158.158 0 0 1 .156 0h.19A.158.158 0 0 1 .5.16a.157.157 0 0 1-.154.159z" transform="translate(555.337 -32.8)" style="fill:#323336"/>
                <path data-name="Shape" d="M35.911 1.318h-.189c-.086 0-.156-.3-.156-.658s.07-.66.155-.66h.189c.086 0 .156.3.156.659s-.066.659-.155.659zm-.821 0h-.569c-.086 0-.156-.3-.156-.658s.07-.66.156-.66h.569c.086 0 .156.3.156.659s-.07.659-.156.659zm-1.2 0h-.19c-.085 0-.154-.3-.154-.658S33.614 0 33.7 0h.19c.085 0 .154.3.154.659s-.069.659-.154.659zm-.822 0H32.5c-.086 0-.156-.3-.156-.658s.07-.66.156-.66h.568c.086 0 .156.3.156.659s-.071.659-.156.659zm-1.2 0h-.189c-.085 0-.154-.3-.154-.658s.068-.66.153-.66h.189c.086 0 .156.3.156.659s-.07.659-.156.659zm-.821 0h-.569c-.086 0-.156-.3-.156-.658s.07-.66.155-.66h.569c.086 0 .156.3.156.659s-.07.659-.156.659zm-1.2 0h-.189c-.086 0-.156-.3-.156-.658s.069-.66.155-.66h.189c.086 0 .156.3.156.659s-.07.659-.156.659zm-.821 0h-.569c-.086 0-.156-.3-.156-.658s.069-.66.155-.66h.569c.086 0 .156.3.156.659s-.07.659-.156.659zm-1.2 0h-.189c-.086 0-.156-.3-.156-.658s.069-.66.154-.66h.189c.086 0 .156.3.156.659s-.07.659-.155.659zm-.821 0h-.569c-.086 0-.156-.3-.156-.658s.069-.66.155-.66H27c.086 0 .156.3.156.659s-.066.659-.156.659zm-1.2 0h-.19c-.085 0-.154-.3-.154-.658s.067-.66.152-.66h.19c.086 0 .156.3.156.659s-.07.659-.159.659zm-.821 0h-.569c-.086 0-.156-.3-.156-.658s.069-.66.155-.66h.569c.085 0 .154.3.154.659s-.069.659-.154.659zm-1.2 0H23.6c-.086 0-.156-.3-.156-.658s.067-.66.153-.66h.189c.086 0 .156.3.156.659s-.07.659-.156.659zm-.821 0h-.569c-.085 0-.154-.3-.154-.658s.066-.66.151-.66h.569c.086 0 .156.3.156.659s-.07.659-.156.659zm-1.2 0h-.189c-.086 0-.156-.3-.156-.658s.067-.66.153-.66h.189c.086 0 .156.3.156.659s-.07.659-.156.659zm-.821 0h-.568c-.086 0-.156-.3-.156-.658s.068-.66.153-.66h.568c.086 0 .156.3.156.659s-.07.659-.156.659zm-1.2 0h-.189c-.086 0-.156-.3-.156-.658s.067-.66.152-.66h.189c.086 0 .156.3.156.659s-.07.659-.155.659zm-.821 0h-.569c-.086 0-.156-.3-.156-.658s.067-.66.153-.66h.569c.086 0 .156.3.156.659s-.074.659-.156.659zm-1.2 0h-.189c-.086 0-.156-.3-.156-.658s.066-.66.152-.66h.189c.086 0 .156.3.156.659s-.073.659-.156.659zm-.822 0h-.568c-.086 0-.156-.3-.156-.658s.067-.66.153-.66h.572c.086 0 .156.3.156.659s-.075.659-.156.659zm-1.2 0h-.189c-.086 0-.156-.3-.156-.658s.067-.66.153-.66h.193c.086 0 .156.3.156.659s-.074.659-.156.659zm-.821 0h-.569c-.086 0-.156-.3-.156-.658s.068-.66.153-.66h.569c.085 0 .154.3.154.659s-.069.659-.154.659zm-1.2 0h-.189c-.086 0-.156-.3-.156-.658S13.4 0 13.484 0h.189c.086 0 .156.3.156.659s-.069.659-.155.659zm-.821 0h-.568c-.086 0-.157-.3-.157-.658S12.2 0 12.285 0h.568c.086 0 .156.3.156.659s-.07.659-.156.659zm-1.2 0h-.189c-.086 0-.156-.3-.156-.658s.065-.66.151-.66h.189c.086 0 .156.3.156.659s-.07.659-.155.659zm-.821 0h-.569c-.086 0-.156-.3-.156-.658s.066-.66.152-.66h.569c.086 0 .156.3.156.659s-.07.659-.156.659zm-1.2 0h-.194c-.086 0-.156-.3-.156-.658s.07-.66.156-.66h.189c.086 0 .156.3.156.659s-.07.659-.156.659zm-.822 0H8.24c-.085 0-.154-.3-.154-.658S8.155 0 8.24 0h.569c.086 0 .157.3.157.659s-.066.659-.157.659zm-1.2 0H7.42c-.086 0-.156-.3-.156-.658S7.334 0 7.42 0h.189c.086 0 .156.3.156.659s-.07.659-.156.659zm-.82 0H6.22c-.086 0-.156-.3-.156-.658S6.135 0 6.22 0h.569c.085 0 .154.3.154.659s-.069.659-.154.659zm-1.2 0H5.4c-.085 0-.154-.3-.154-.658S5.313 0 5.4 0h.189c.086 0 .157.3.157.659s-.072.659-.158.659zm-.821 0H4.2c-.086 0-.156-.3-.156-.658S4.112 0 4.2 0h.569c.086 0 .156.3.156.659s-.072.659-.158.659zm-1.2 0h-.2c-.086 0-.156-.3-.156-.658s.074-.66.16-.66h.189c.086 0 .156.3.156.659s-.07.659-.156.659zm-.821 0h-.575c-.085 0-.154-.3-.154-.658S2.092 0 2.177 0h.569c.085 0 .154.3.154.659s-.069.659-.154.659zm-1.2 0h-.2c-.086 0-.156-.3-.156-.658S1.27 0 1.356 0h.189c.086 0 .155.3.155.659s-.069.659-.155.659zm-.821 0H.154C.069 1.318 0 1.022 0 .659S.069 0 .154 0h.57C.81 0 .88.3.88.659s-.07.659-.156.659z" transform="translate(556.158 -32.799)" style="fill:#323336"/>
                <path data-name="Path" d="M.436.319H.155A.158.158 0 0 1 0 .16.158.158 0 0 1 .155 0h.281a.157.157 0 0 1 .155.16.157.157 0 0 1-.155.159z" transform="translate(592.545 -32.8)" style="fill:#323336"/>
                <path data-name="Path" d="M.726.372a.368.368 0 0 1-.363.373A.368.368 0 0 1 0 .372.367.367 0 0 1 .363 0a.368.368 0 0 1 .363.372z" transform="translate(555.862 -37.442)" style="fill:#3a93d0"/>
                <path data-name="Path" d="M.726.372a.368.368 0 0 1-.363.373A.368.368 0 0 1 0 .372.367.367 0 0 1 .363 0a.368.368 0 0 1 .363.372z" transform="translate(557.959 -37.442)" style="fill:#3a93d0"/>
                <path data-name="Path" d="M.726.372a.368.368 0 0 1-.363.373A.368.368 0 0 1 0 .372.368.368 0 0 1 .363 0a.368.368 0 0 1 .363.372z" transform="translate(560.056 -37.442)" style="fill:#3a93d0"/>
                <path data-name="Path" d="M.726.372a.368.368 0 0 1-.363.373A.368.368 0 0 1 0 .372.368.368 0 0 1 .363 0a.367.367 0 0 1 .363.372z" transform="translate(562.154 -37.442)" style="fill:#3a93d0"/>
            </g>
            <g style="clip-path:url(#ikefapa6qb)" data-name="Clipped">
                <path data-name="Path" d="M.788.367c-.194 0-.553.1-.716.788a2.4 2.4 0 0 0-.038.981 3.852 3.852 0 0 0 .224.8.759.759 0 0 0 .086.151.231.231 0 0 0 .269.069c.06-.031.13-.105.106-.274a2.329 2.329 0 0 0-.069-.268 2.966 2.966 0 0 1-.15-.627c-.01-.235.08-.266.14-.279.1-.023.186.091.266.233.1.169.26.471.393.7a.763.763 0 0 0 .7.414.758.758 0 0 0 .773-.609 7.651 7.651 0 0 1 .292-.846c.13-.3.306-.455.452-.406s.17.182.172.383a4.711 4.711 0 0 1-.034.519 1.5 1.5 0 0 0-.012.216c.009.115.056.23.183.248a.281.281 0 0 0 .285-.223 1.247 1.247 0 0 0 .039-.19 3.488 3.488 0 0 0 .032-.775 2.831 2.831 0 0 0-.2-.93A.626.626 0 0 0 3.47 0a.749.749 0 0 0-.687.484c-.139.3-.25.617-.317.776a.4.4 0 0 1-.323.278.526.526 0 0 1-.47-.32A4.593 4.593 0 0 0 1.255.6.584.584 0 0 0 .788.367z" style="fill:#3c93d0" transform="translate(589.869 -43.609)"/>
            </g>
        </g>
        <g data-name="Grupo 201">
            <g data-name="Group">
                <path data-name="Path" d="M60.211 55.57c-.014 0-.03-.015-.044-.03-.03-.03-.029-.059.015-.089l.955-.793c.03-.029.059-.029.089.016s.029.059-.016.089l-.954.793c-.015.015-.015.015-.045.015" transform="translate(486.314 -87.758)" style="fill:#d1d841"/>
                <path data-name="Rectangle" d="M0 0h5.1v.519H0z" transform="rotate(-179.467 262.91 -18.512)" style="fill:#019bf2"/>
                <path data-name="Path" d="M22.468 62.1a.171.171 0 0 1-.178-.158.181.181 0 0 1 .173-.171l.731-.048a.173.173 0 0 1 .179.18.181.181 0 0 1-.173.193z" transform="translate(504.536 -91.169)" style="fill:#019bf2"/>
                <path data-name="Path" d="M22.449 63.049a.168.168 0 0 1-.162-.173.177.177 0 0 1 .182-.155l.732.015a.177.177 0 0 1 .17.2.185.185 0 0 1-.192.177z" transform="translate(504.538 -91.648)" style="fill:#019bf2"/>
                <path data-name="Path" d="M22.348 63.969a.164.164 0 1 1 .047-.324l.728.08a.187.187 0 0 1-.053.369z" transform="translate(504.578 -92.092)" style="fill:#019bf2"/>
                <path data-name="Path" d="M22.173 64.852a.172.172 0 0 1-.13-.2.166.166 0 0 1 .2-.122l.719.143a.187.187 0 0 1 .137.223.181.181 0 0 1-.219.141z" transform="translate(504.656 -92.518)" style="fill:#019bf2"/>
                <path data-name="Path" d="M21.915 65.74a.178.178 0 0 1-.115-.211.167.167 0 0 1 .213-.1l.7.207a.185.185 0 0 1 .115.234.175.175 0 0 1-.227.122z" transform="translate(504.774 -92.946)" style="fill:#019bf2"/>
                <path data-name="Path" d="M21.587 66.578a.18.18 0 0 1-.1-.221.17.17 0 0 1 .223-.083l.682.267a.182.182 0 0 1 .093.242.173.173 0 0 1-.234.1z" transform="translate(504.927 -93.352)" style="fill:#019bf2"/>
                <path data-name="Path" d="M21.176 67.407a.179.179 0 0 1-.08-.23.172.172 0 0 1 .23-.063l.656.327a.18.18 0 0 1 .07.249.175.175 0 0 1-.241.083z" transform="translate(505.118 -93.753)" style="fill:#019bf2"/>
                <path data-name="Path" d="M20.706 68.175a.177.177 0 0 1-.059-.235.174.174 0 0 1 .237-.042l.626.381a.18.18 0 0 1 .047.254.176.176 0 0 1-.249.06z" transform="translate(505.338 -94.127)" style="fill:#019bf2"/>
                <path data-name="Path" d="M20.157 68.919a.165.165 0 1 1 .2-.258l.59.435a.187.187 0 0 1-.23.293z" transform="translate(505.595 -94.489)" style="fill:#019bf2"/>
                <path data-name="Path" d="M19.564 69.6a.173.173 0 0 1-.015-.239.177.177 0 0 1 .242 0l.551.484a.176.176 0 0 1 0 .256.179.179 0 0 1-.258.014z" transform="translate(505.875 -94.819)" style="fill:#019bf2"/>
                <path data-name="Path" d="M18.9 70.233a.173.173 0 0 1 .006-.239.181.181 0 0 1 .241.023l.507.531a.174.174 0 0 1-.022.255.181.181 0 0 1-.258-.009z" transform="translate(506.191 -95.131)" style="fill:#019bf2"/>
                <path data-name="Path" d="M18.2 70.8a.168.168 0 0 1 .027-.236.176.176 0 0 1 .236.041l.459.572a.177.177 0 0 1-.04.256.183.183 0 0 1-.258-.033z" transform="translate(506.523 -95.407)" style="fill:#019bf2"/>
                <path data-name="Path" d="M17.431 71.307a.167.167 0 0 1 .049-.231.17.17 0 0 1 .229.059l.407.611a.182.182 0 0 1-.062.254.185.185 0 0 1-.255-.057z" transform="translate(506.887 -95.658)" style="fill:#019bf2"/>
                <path data-name="Path" d="M16.644 71.736a.169.169 0 0 1 .069-.226.165.165 0 0 1 .222.076l.353.644a.188.188 0 0 1-.082.249.183.183 0 0 1-.249-.079z" transform="translate(507.262 -95.869)" style="fill:#019bf2"/>
                <path data-name="Path" d="M15.8 72.1a.177.177 0 0 1 .087-.223.167.167 0 0 1 .215.1l.294.674a.185.185 0 0 1-.1.239.175.175 0 0 1-.239-.1z" transform="translate(507.664 -96.051)" style="fill:#019bf2"/>
                <path data-name="Path" d="M14.952 72.393a.182.182 0 0 1 .1-.221.171.171 0 0 1 .207.119l.235.7a.182.182 0 0 1-.125.227.173.173 0 0 1-.229-.112z" transform="translate(508.071 -96.194)" style="fill:#019bf2"/>
                <path data-name="Path" d="M14.052 72.606a.178.178 0 0 1 .124-.208.173.173 0 0 1 .2.138l.173.714a.18.18 0 0 1-.145.213.176.176 0 0 1-.218-.133z" transform="translate(508.502 -96.304)" style="fill:#019bf2"/>
                <path data-name="Path" d="M13.164 72.738a.173.173 0 0 1 .141-.195.178.178 0 0 1 .185.157l.112.726a.176.176 0 0 1-.163.2.178.178 0 0 1-.206-.154z" transform="translate(508.928 -96.375)" style="fill:#019bf2"/>
                <path data-name="Path" d="M12.243 72.8a.171.171 0 0 1 .157-.179.181.181 0 0 1 .17.174l.048.733a.174.174 0 0 1-.18.181.182.182 0 0 1-.192-.174z" transform="translate(509.372 -96.412)" style="fill:#019bf2"/>
                <path data-name="Path" d="M11.29 72.778a.168.168 0 0 1 .172-.163.178.178 0 0 1 .154.182l-.015.735a.177.177 0 0 1-.2.17.185.185 0 0 1-.176-.193z" transform="translate(509.859 -96.41)" style="fill:#019bf2"/>
                <path data-name="Path" d="M10.314 72.677a.166.166 0 0 1 .186-.145.169.169 0 0 1 .138.192l-.08.731a.183.183 0 0 1-.209.156.186.186 0 0 1-.159-.209z" transform="translate(510.361 -96.369)" style="fill:#019bf2"/>
                <path data-name="Path" d="M9.376 72.5a.171.171 0 0 1 .2-.13.167.167 0 0 1 .121.2l-.143.721a.186.186 0 0 1-.222.138.181.181 0 0 1-.14-.22z" transform="translate(510.844 -96.292)" style="fill:#019bf2"/>
                <path data-name="Path" d="M8.433 72.242a.177.177 0 0 1 .209-.115.169.169 0 0 1 .1.214l-.206.705a.183.183 0 0 1-.234.116.175.175 0 0 1-.12-.228z" transform="translate(511.33 -96.173)" style="fill:#019bf2"/>
                <path data-name="Path" d="M7.54 71.913a.18.18 0 0 1 .22-.1.171.171 0 0 1 .083.224l-.266.685a.182.182 0 0 1-.242.093.173.173 0 0 1-.1-.234z" transform="translate(511.79 -96.019)" style="fill:#019bf2"/>
                <path data-name="Path" d="M6.661 71.5a.177.177 0 0 1 .228-.081.172.172 0 0 1 .063.231l-.325.659a.179.179 0 0 1-.249.07.175.175 0 0 1-.082-.241z" transform="translate(512.244 -95.827)" style="fill:#019bf2"/>
                <path data-name="Path" d="M5.847 71.029a.165.165 0 1 1 .276.178l-.38.629a.186.186 0 0 1-.312-.2z" transform="translate(512.665 -95.607)" style="fill:#019bf2"/>
                <path data-name="Path" d="M5.058 70.479a.174.174 0 0 1 .237-.038.177.177 0 0 1 .02.241l-.433.593a.176.176 0 0 1-.255.024.179.179 0 0 1-.037-.255z" transform="translate(513.073 -95.349)" style="fill:#019bf2"/>
                <path data-name="Path" d="M4.341 69.883a.172.172 0 0 1 .239-.016.179.179 0 0 1 0 .243l-.483.553a.174.174 0 0 1-.255 0 .181.181 0 0 1-.014-.259z" transform="translate(513.445 -95.068)" style="fill:#019bf2"/>
                <path data-name="Path" d="M3.665 69.214a.17.17 0 0 1 .238.006.181.181 0 0 1-.023.242l-.529.509a.173.173 0 0 1-.251-.021.183.183 0 0 1 .009-.26z" transform="translate(513.797 -94.751)" style="fill:#019bf2"/>
                <path data-name="Path" d="M3.067 68.511a.168.168 0 0 1 .235.028.178.178 0 0 1-.04.236l-.571.461a.176.176 0 0 1-.255-.04.186.186 0 0 1 .033-.26z" transform="translate(514.11 -94.418)" style="fill:#019bf2"/>
                <path data-name="Path" d="M2.523 67.742a.165.165 0 0 1 .23.049.172.172 0 0 1-.058.23l-.609.408a.181.181 0 0 1-.253-.061.187.187 0 0 1 .058-.256z" transform="translate(514.395 -94.052)" style="fill:#019bf2"/>
                <path data-name="Path" d="M2.062 66.953a.168.168 0 0 1 .226.069.166.166 0 0 1-.076.223l-.642.355a.186.186 0 1 1-.169-.332z" transform="translate(514.638 -93.676)" style="fill:#019bf2"/>
                <path data-name="Path" d="M1.667 66.107a.176.176 0 0 1 .222.087.168.168 0 0 1-.1.216l-.671.3a.184.184 0 0 1-.238-.1.177.177 0 0 1 .1-.24z" transform="translate(514.848 -93.272)" style="fill:#019bf2"/>
                <path data-name="Path" d="M1.362 65.254a.181.181 0 0 1 .22.1.172.172 0 0 1-.118.208L.77 65.8a.182.182 0 0 1-.227-.125.174.174 0 0 1 .112-.23z" transform="translate(515.007 -92.864)" style="fill:#019bf2"/>
                <path data-name="Path" d="M1.136 64.351a.176.176 0 0 1 .207.124.173.173 0 0 1-.137.2l-.712.174a.178.178 0 0 1-.211-.149.176.176 0 0 1 .132-.219z" transform="translate(515.13 -92.431)" style="fill:#019bf2"/>
                <path data-name="Path" d="M1 63.459a.173.173 0 0 1 .194.142.177.177 0 0 1-.156.185L.31 63.9a.176.176 0 0 1-.2-.163.18.18 0 0 1 .154-.208z" transform="translate(515.21 -92.003)" style="fill:#019bf2"/>
                <path data-name="Path" d="M.932 62.536a.171.171 0 0 1 .179.157.182.182 0 0 1-.174.171l-.731.048a.173.173 0 0 1-.18-.18.181.181 0 0 1 .174-.193z" transform="translate(515.251 -91.559)" style="fill:#019bf2"/>
                <path data-name="Path" d="M.95 61.579a.168.168 0 0 1 .162.173.177.177 0 0 1-.182.155l-.73-.015a.176.176 0 0 1-.17-.2.184.184 0 0 1 .192-.177z" transform="translate(515.251 -91.069)" style="fill:#019bf2"/>
                <path data-name="Path" d="M1.057 60.6a.164.164 0 1 1-.046.324l-.728-.08a.184.184 0 0 1-.155-.21.186.186 0 0 1 .208-.159z" transform="translate(515.204 -90.565)" style="fill:#019bf2"/>
                <path data-name="Path" d="M1.246 59.658a.171.171 0 0 1 .13.2.166.166 0 0 1-.2.122l-.718-.143a.186.186 0 0 1-.137-.223.181.181 0 0 1 .219-.141z" transform="translate(515.113 -90.081)" style="fill:#019bf2"/>
                <path data-name="Path" d="M1.522 58.711a.177.177 0 0 1 .115.21.166.166 0 0 1-.213.1l-.7-.207a.185.185 0 0 1-.116-.234.176.176 0 0 1 .228-.122z" transform="translate(514.977 -89.593)" style="fill:#019bf2"/>
                <path data-name="Path" d="M1.869 57.815a.181.181 0 0 1 .1.221.171.171 0 0 1-.223.083l-.682-.267a.182.182 0 0 1-.093-.243.173.173 0 0 1 .233-.1z" transform="translate(514.804 -89.131)" style="fill:#019bf2"/>
                <path data-name="Path" d="M2.306 56.932a.18.18 0 0 1 .08.23.172.172 0 0 1-.23.063L1.5 56.9a.18.18 0 0 1-.07-.249.174.174 0 0 1 .241-.083z" transform="translate(514.587 -88.675)" style="fill:#019bf2"/>
                <path data-name="Path" d="M2.8 56.115a.178.178 0 0 1 .06.235.174.174 0 0 1-.237.042L2 56.01a.179.179 0 0 1-.047-.253.176.176 0 0 1 .247-.057z" transform="translate(514.339 -88.253)" style="fill:#019bf2"/>
                <path data-name="Path" d="M3.387 55.323a.165.165 0 1 1-.2.258l-.59-.435a.187.187 0 0 1 .23-.294z" transform="translate(514.048 -87.843)" style="fill:#019bf2"/>
                <path data-name="Path" d="M4.017 54.6a.173.173 0 0 1 .016.239.178.178 0 0 1-.243 0l-.551-.484a.176.176 0 0 1 0-.256.179.179 0 0 1 .258-.014z" transform="translate(513.732 -87.47)" style="fill:#019bf2"/>
                <path data-name="Path" d="M4.725 53.924a.172.172 0 0 1-.006.239.178.178 0 0 1-.24-.023l-.507-.531a.174.174 0 0 1 .021-.255.182.182 0 0 1 .259.01z" transform="translate(513.375 -87.116)" style="fill:#019bf2"/>
                <path data-name="Path" d="M5.472 53.325a.17.17 0 0 1-.028.237.177.177 0 0 1-.235-.041l-.459-.573a.176.176 0 0 1 .04-.255.183.183 0 0 1 .258.033z" transform="translate(512.996 -86.803)" style="fill:#019bf2"/>
                <path data-name="Path" d="M6.29 52.779a.167.167 0 0 1-.049.231.171.171 0 0 1-.229-.058L5.6 52.34a.181.181 0 0 1 .061-.254.185.185 0 0 1 .255.057z" transform="translate(512.58 -86.516)" style="fill:#019bf2"/>
                <path data-name="Path" d="M7.128 52.316a.169.169 0 0 1-.069.226.165.165 0 0 1-.222-.076l-.352-.644a.187.187 0 0 1 .082-.25.184.184 0 0 1 .249.079z" transform="translate(512.153 -86.272)" style="fill:#019bf2"/>
                <path data-name="Path" d="M8.027 51.918a.178.178 0 0 1-.087.224.168.168 0 0 1-.216-.1l-.294-.673a.186.186 0 0 1 .1-.24.176.176 0 0 1 .239.1z" transform="translate(511.694 -86.062)" style="fill:#019bf2"/>
                <path data-name="Path" d="M8.933 51.613a.182.182 0 0 1-.1.22.171.171 0 0 1-.207-.118l-.235-.7a.182.182 0 0 1 .125-.227.173.173 0 0 1 .229.111z" transform="translate(511.232 -85.902)" style="fill:#019bf2"/>
                <path data-name="Path" d="M9.888 51.387a.177.177 0 0 1-.124.208.173.173 0 0 1-.2-.137l-.164-.715a.18.18 0 0 1 .146-.213.176.176 0 0 1 .218.133z" transform="translate(510.744 -85.778)" style="fill:#019bf2"/>
                <path data-name="Path" d="M10.834 51.246a.174.174 0 0 1-.141.195.177.177 0 0 1-.184-.157l-.112-.726a.176.176 0 0 1 .163-.2.179.179 0 0 1 .207.154z" transform="translate(510.261 -85.698)" style="fill:#019bf2"/>
                <path data-name="Path" d="M38.339 30.464a.366.366 0 0 1-.385.344l-25.461-.236a.366.366 0 0 1-.379-.351L12.388.536a.366.366 0 0 1 .386-.345l25.461.236a.366.366 0 0 1 .379.352z" transform="translate(509.434 -61.552)" style="fill:#c9c9c9"/>
                <path data-name="Path" d="M38.3 30.418a.345.345 0 0 1-.362.323l-23.91-.221a.344.344 0 0 1-.355-.33l.258-27.877a.343.343 0 0 1 .361-.323l23.91.221a.344.344 0 0 1 .356.33z" transform="translate(508.684 -62.417)" style="fill:#fff"/>
                <path data-name="Path" d="M23.949 11.853a.34.34 0 0 1-.356.323l-6.456-.06a.34.34 0 0 1-.349-.33l.05-5.336a.341.341 0 0 1 .355-.324l6.455.06a.341.341 0 0 1 .35.33z" transform="translate(507.184 -64.408)" style="fill:#6aa9cc"/>
                <path data-name="Path" d="M23.62 47.44a.34.34 0 0 1-.355.323l-6.456-.06a.34.34 0 0 1-.349-.329l.049-5.336a.341.341 0 0 1 .355-.323l6.456.06a.341.341 0 0 1 .349.33z" transform="translate(507.342 -81.537)" style="fill:#6aa9cc"/>
                <path data-name="Path" d="M23.693 29.937c0 .323-.152.584-.331.582l-5.208-.048c-.18 0-.323-.264-.32-.588l.2-22.025c0-.323.151-.583.331-.582l5.207.048c.18 0 .323.265.32.588z" transform="translate(506.68 -64.962)" style="fill:#e7ebec"/>
                <g data-name="Clipped" style="opacity:.3">
                    <g data-name="Grupo 194">
                        <g data-name="Grupo 193">
                            <path data-name="Path" d="M6.072 22.786c0 .323-.152.584-.331.582L.533 23.32c-.18 0-.323-.264-.32-.588L.417.707C.42.384.568.124.748.125l5.208.048c.18 0 .323.265.32.588z" transform="translate(524.301 -57.81)" style="fill:#2d3e50"/>
                        </g>
                    </g>
                </g>
                <path data-name="Path" d="M23.693 29.937c0 .323-.152.584-.331.582l-5.208-.048c-.18 0-.323-.264-.32-.588l.2-22.025c0-.323.151-.583.331-.582l5.207.048c.18 0 .323.265.32.588z" transform="translate(506.68 -64.962)" style="fill:#cbdfea"/>
                <path data-name="Path" d="M46.457 12.079a.255.255 0 0 1-.269.241l-9.175-.085a.257.257 0 0 1-.265-.246l.039-4.227a.257.257 0 0 1 .269-.242l9.175.085a.257.257 0 0 1 .265.246z" transform="translate(497.577 -65.079)" style="fill:#c8dbe6"/>
                <path data-name="Shape" d="m46.251 6.062-11.174-.1a.326.326 0 0 0-.328.324l-.049 5.66a.326.326 0 0 0 .322.33l11.174.1a.327.327 0 0 0 .329-.324l.052-5.662a.326.326 0 0 0-.323-.33m-.781 5.265a.255.255 0 0 1-.269.241l-9.175-.085a.257.257 0 0 1-.265-.246L35.8 7.01a.257.257 0 0 1 .269-.242l9.175.085a.257.257 0 0 1 .265.246z" transform="translate(498.564 -64.328)" style="fill:#1a3748"/>
                <path data-name="Path" d="M37.346 21.488a.326.326 0 0 1-.329.323l-1.546-.011a.326.326 0 0 1-.322-.329v-.491a.326.326 0 0 1 .329-.323l1.545.014a.326.326 0 0 1 .327.329z" transform="translate(498.346 -71.4)" style="fill:#1a3748"/>
                <path data-name="Path" d="M43.228 21.542a.326.326 0 0 1-.328.323l-1.546-.015a.325.325 0 0 1-.322-.329v-.49a.326.326 0 0 1 .329-.323l1.546.015a.326.326 0 0 1 .322.329z" transform="translate(495.515 -71.427)" style="fill:#1a3748"/>
                <path data-name="Path" d="M42.7 52.9c0 .1-.109.181-.243.18l-1.147-.011a.216.216 0 0 1-.239-.184v-.272c0-.1.11-.181.243-.18l1.147.011a.218.218 0 0 1 .24.184z" transform="translate(495.496 -86.697)" style="fill:#6aa9cc"/>
                <path data-name="Path" d="M38.627 52.864c0 .1-.11.181-.243.179l-1.147-.011c-.134 0-.241-.083-.24-.183v-.273a.217.217 0 0 1 .243-.179l1.147.01a.218.218 0 0 1 .24.184z" transform="translate(497.457 -86.679)" style="fill:#6aa9cc"/>
                <path data-name="Path" d="M49.391 52.91a.3.3 0 0 1-.329.242l-1.546-.014c-.179 0-.325-.113-.323-.248v-.368a.294.294 0 0 1 .328-.242l1.545.015c.18 0 .325.113.323.248z" transform="translate(492.549 -86.622)" style="fill:#3d7630"/>
                <path data-name="Path" d="M55.351 52.964c0 .135-.148.243-.327.242l-1.546-.014a.292.292 0 0 1-.323-.249v-.367c0-.135.148-.244.328-.242l1.546.014a.293.293 0 0 1 .323.248z" transform="translate(489.68 -86.649)" style="fill:#b85742"/>
                <path data-name="Path" d="M49.66 21.6a.326.326 0 0 1-.329.324l-1.546-.015a.325.325 0 0 1-.322-.329v-.49a.327.327 0 0 1 .328-.324l1.546.014a.326.326 0 0 1 .323.33z" transform="translate(492.419 -71.455)" style="fill:#1a3748"/>
                <path data-name="Path" d="M55.675 21.3a.692.692 0 1 1-.2-.492.692.692 0 0 1 .2.492" transform="translate(489.133 -71.376)" style="fill:#6aa9cc"/>
                <path data-name="Path" d="M55.646 28.475a.648.648 0 1 1-.646-.656.648.648 0 0 1 .646.656" transform="translate(489.105 -74.849)" style="fill:#6aa9cc"/>
                <path data-name="Path" d="M55.646 34.527a.654.654 0 1 1-.188-.462.649.649 0 0 1 .188.462" transform="translate(489.105 -77.762)" style="fill:#6aa9cc"/>
                <path data-name="Path" d="M55.587 40.874a.649.649 0 1 1-.185-.462.649.649 0 0 1 .185.462" transform="translate(489.133 -80.817)" style="fill:#6aa9cc"/>
                <path data-name="Path" d="M55.523 47.812a.649.649 0 1 1-.643-.657.649.649 0 0 1 .643.657" transform="translate(489.164 -84.156)" style="fill:#6aa9cc"/>
                <path data-name="Path" d="M38.194 27.772a.916.916 0 1 1-.908-.928.916.916 0 0 1 .908.928" transform="translate(497.762 -74.38)" style="fill:#019bf2"/>
                <path data-name="Path" d="M43.487 27.821a.915.915 0 1 1-.907-.928.915.915 0 0 1 .907.928" transform="translate(495.214 -74.404)" style="fill:#019bf2"/>
                <path data-name="Path" d="M48.782 27.87a.915.915 0 1 1-.907-.927.915.915 0 0 1 .907.927" transform="translate(492.666 -74.427)" style="fill:#019bf2"/>
                <path data-name="Path" d="M38.135 34.1a.915.915 0 1 1-.907-.927.915.915 0 0 1 .907.927" transform="translate(497.79 -77.425)" style="fill:#019bf2"/>
                <path data-name="Path" d="M43.428 34.146a.915.915 0 1 1-.907-.927.915.915 0 0 1 .907.927" transform="translate(495.243 -77.448)" style="fill:#019bf2"/>
                <path data-name="Path" d="M48.723 34.2a.915.915 0 1 1-.907-.927.915.915 0 0 1 .907.927" transform="translate(492.694 -77.472)" style="fill:#019bf2"/>
                <path data-name="Path" d="M38.075 40.424a.916.916 0 1 1-.907-.927.916.916 0 0 1 .907.927" transform="translate(497.819 -80.47)" style="fill:#019bf2"/>
                <path data-name="Path" d="M43.37 40.473a.915.915 0 1 1-.907-.927.915.915 0 0 1 .907.927" transform="translate(495.271 -80.494)" style="fill:#019bf2"/>
                <path data-name="Path" d="M48.664 40.522a.915.915 0 1 1-.907-.927.915.915 0 0 1 .907.927" transform="translate(492.722 -80.517)" style="fill:#019bf2"/>
                <path data-name="Path" d="M38.017 46.771a.917.917 0 1 1-.261-.652.915.915 0 0 1 .261.652" transform="translate(497.847 -83.525)" style="fill:#019bf2"/>
                <path data-name="Path" d="M43.311 46.82a.915.915 0 1 1-.907-.927.915.915 0 0 1 .907.927" transform="translate(495.299 -83.548)" style="fill:#019bf2"/>
                <path data-name="Path" d="M48.606 46.869a.917.917 0 1 1-.261-.652.915.915 0 0 1 .261.652" transform="translate(492.751 -83.572)" style="fill:#019bf2"/>
                <path data-name="Rectangle" d="M0 0h.651v5.119H0z" transform="translate(527.107 -34.47)" style="fill:#019bf2"/>
            </g>
            <g data-name="Group" style="opacity:.3">
                <path data-name="Path" d="M5.548.234c.179 0 .323.265.319.588l-.2 22.025c0 .323-.151.584-.33.582L.125 23.38C3.026 19.727 4.594.312 4.594.312V.224z" transform="translate(524.741 -57.858)" style="fill:#019bf2"/>
            </g>
        </g>
    </g>
</svg>
