<svg xmlns="http://www.w3.org/2000/svg" width="16" height="23.983" viewBox="0 0 16 23.983">
    <g data-name="Descargar_Descarga app_2Regular">
        <path data-name="Trazado 1802" d="M128.891 23.983h-7.983a4.069 4.069 0 0 1-3-.989 4.045 4.045 0 0 1-1.006-3.019V4.009a4.037 4.037 0 0 1 1-2.982A4.018 4.018 0 0 1 120.909 0h7.983a4.035 4.035 0 0 1 3.008 1.006 4.046 4.046 0 0 1 1 3v15.968a4.059 4.059 0 0 1-1.006 3.019 4.075 4.075 0 0 1-3.003.99zm-7.982-22.618c-1.876 0-2.644.768-2.644 2.644v15.965c0 1.928.716 2.644 2.644 2.644h7.983c1.928 0 2.644-.716 2.644-2.644V4.009a2.815 2.815 0 0 0-.6-2.04 2.8 2.8 0 0 0-2.044-.6z" style="fill:#fff" transform="translate(-116.9)"/>
        <path data-name="Trazado 1803" d="M322.713 550a.916.916 0 0 0-1.013 1.017 1.016 1.016 0 1 0 2.026 0 .918.918 0 0 0-1.013-1.017z" transform="translate(-314.713 -531.237)" style="fill:#fff"/>
        <path data-name="Trazado 1804" d="M220.141 133.936a1.251 1.251 0 0 1-1.351-1.358 1.353 1.353 0 1 1 2.705 0 1.251 1.251 0 0 1-1.354 1.358zm0-2.033c-.464 0-.672.208-.672.675a.713.713 0 0 0 .157.508.7.7 0 0 0 .512.167.68.68 0 0 0 .512-.167.715.715 0 0 0 .157-.508c.003-.467-.207-.678-.666-.678zm-.007-2.163a.612.612 0 0 1-.461-.212l-4.019-4.64a.607.607 0 0 1 .061-.86.617.617 0 0 1 .4-.15h1.75v-5.994a1.046 1.046 0 0 1 .331-.8 1.1 1.1 0 0 1 .853-.3h2.238a1.062 1.062 0 0 1 1.064 1.058.586.586 0 0 1-.007.109v5.929h1.815a.609.609 0 0 1 .461 1.01l-4.029 4.64a.6.6 0 0 1-.457.21zm-2.681-4.64 2.681 3.1 2.692-3.1h-1.088a.61.61 0 0 1-.611-.611V118h-2.04v6.485a.61.61 0 0 1-.611.611z" transform="translate(-212.141 -112.795)" style="fill:#fff"/>
    </g>
</svg>
