<svg xmlns="http://www.w3.org/2000/svg" width="23.507" height="23.502" viewBox="0 0 23.507 23.502">
    <path data-name="FACEBOOK NEG" d="M0 3.883V19.62a3.883 3.883 0 0 0 3.883 3.88h15.742a3.883 3.883 0 0 0 3.883-3.883V3.883A3.883 3.883 0 0 0 19.625 0H3.883A3.883 3.883 0 0 0 0 3.883zm15.135 5.27-.173 2.293h-2.351v7.972H9.634V11.45h-1.58v-2.3h1.58V7.621a3.969 3.969 0 0 1 .515-2.38 2.813 2.813 0 0 1 2.457-1.151 9.851 9.851 0 0 1 2.842.289l-.4 2.365a5.352 5.352 0 0 0-1.267-.188c-.617 0-1.171.222-1.171.838v1.758z" style="fill:#fff"/>
</svg>
