<svg xmlns="http://www.w3.org/2000/svg" width="23.507" height="23.502" viewBox="0 0 23.507 23.502">
    <g data-name="INSTAGRAM NEG">
        <path data-name="Trazado 174" d="M21.58 19a2.625 2.625 0 1 0 2.62 2.625A2.625 2.625 0 0 0 21.58 19z" transform="translate(-9.822 -9.848)" style="fill:#fff"/>
        <path data-name="Trazado 175" d="M23.6 12.816a2.408 2.408 0 0 0-.588-.9 2.375 2.375 0 0 0-.9-.588 4.234 4.234 0 0 0-1.445-.275C19.815 11 19.569 11 17.464 11s-2.351 0-3.184.043a4.2 4.2 0 0 0-1.445.275 2.6 2.6 0 0 0-1.493 1.488 4.234 4.234 0 0 0-.275 1.445C11 15.109 11 15.359 11 17.46s0 2.351.043 3.184a4.2 4.2 0 0 0 .275 1.445 2.6 2.6 0 0 0 1.488 1.493 4.393 4.393 0 0 0 1.445.27c.829.039 1.079.048 3.179.048s2.351 0 3.184-.048a4.384 4.384 0 0 0 1.445-.27 2.616 2.616 0 0 0 1.537-1.5 4.176 4.176 0 0 0 .275-1.445c.034-.829.043-1.079.043-3.179s0-2.351-.043-3.179a4.263 4.263 0 0 0-.275-1.46zm-6.14 8.671a1.677 1.677 0 1 1 0 .014zm4.205-7.307a.4.4 0 1 1 0 .014z" transform="translate(-5.701 -5.701)" style="fill:#fff"/>
        <path data-name="Trazado 176" d="M19.625 0H3.883A3.883 3.883 0 0 0 0 3.883V19.62a3.883 3.883 0 0 0 3.883 3.88h15.742a3.883 3.883 0 0 0 3.883-3.883V3.883A3.883 3.883 0 0 0 19.625 0zm-.043 15a5.838 5.838 0 0 1-.366 1.927 4.032 4.032 0 0 1-2.307 2.307 5.814 5.814 0 0 1-1.927.366c-.843.034-1.108.043-3.247.043s-2.409 0-3.247-.043a5.872 5.872 0 0 1-1.927-.366A3.921 3.921 0 0 1 5.2 18.3a3.878 3.878 0 0 1-.91-1.4 5.814 5.814 0 0 1-.366-1.927c-.039-.843-.048-1.108-.048-3.247s0-2.409.053-3.251A5.6 5.6 0 0 1 4.3 6.556 3.825 3.825 0 0 1 5.2 5.2a3.854 3.854 0 0 1 1.4-.915 5.843 5.843 0 0 1 1.927-.366c.838-.034 1.108-.043 3.247-.043s2.409 0 3.247.048a5.872 5.872 0 0 1 1.927.366 4.061 4.061 0 0 1 2.3 2.3 5.843 5.843 0 0 1 .366 1.927c.039.838.039 1.108.039 3.247s-.038 2.393-.072 3.236z" style="fill:#fff"/>
    </g>
</svg>
