<svg xmlns="http://www.w3.org/2000/svg" width="56.288" height="93.282" viewBox="0 0 56.288 93.282">
    <g data-name="Grupo 2305">
        <path data-name="Trazado 1424" d="M853.285 933.353c0 1.749-12.6 3.167-28.144 3.167S797 935.1 797 933.353s12.6-3.167 28.144-3.167 28.144 1.418 28.144 3.167" transform="translate(-796.997 -843.238)" style="fill:rgba(11,39,57,.19)"/>
        <path data-name="Trazado 1433" d="M881.146 275.137h-28.171a7.456 7.456 0 0 0-7.477 7.477v74.132a7.456 7.456 0 0 0 7.477 7.477h28.171a7.456 7.456 0 0 0 7.477-7.477v-74.132a7.5 7.5 0 0 0-7.477-7.477" transform="translate(-839.791 -275.101)" style="fill:#00283b"/>
        <path data-name="Trazado 1434" d="M894.535 274.87h-28.206a7.456 7.456 0 0 0-7.477 7.477v74.131a7.456 7.456 0 0 0 7.477 7.477H894.5a7.456 7.456 0 0 0 7.477-7.477v-74.131a7.426 7.426 0 0 0-7.441-7.477" transform="translate(-851.373 -274.87)" style="fill:#00283b"/>
        <path data-name="Trazado 1435" d="M907.4 290.894h-2.835a.8.8 0 0 0-.815.815v1.2a1.664 1.664 0 0 1-1.666 1.665H884.79a1.664 1.664 0 0 1-1.665-1.665v-1.2a.8.8 0 0 0-.815-.815h-2.835a5.687 5.687 0 0 0-5.67 5.67v73.458a5.687 5.687 0 0 0 5.67 5.67h27.959a5.686 5.686 0 0 0 5.67-5.67v-73.458a5.74 5.74 0 0 0-5.705-5.67" transform="translate(-864.342 -288.767)" style="fill:#019af1"/>
        <path data-name="Trazado 1436" d="M983.151 912.747H970a.319.319 0 0 1 0-.638h13.147a.319.319 0 0 1 0 .638" transform="translate(-947.501 -827.559)" style="fill:#fff"/>
        <path data-name="Trazado 1437" d="M1012.389 302.973h-.6a.413.413 0 1 1 0-.827h.6a.413.413 0 0 1 0 .827z" transform="translate(-979.006 -298.874)" style="fill:#d3d4d3"/>
        <path data-name="Trazado 36" d="M-126.743 208.945c-1.116.018-3.176.568-4.118 4.412a13.108 13.108 0 0 0-.218 5.5 21.049 21.049 0 0 0 1.285 4.482 4.028 4.028 0 0 0 .5.843 1.341 1.341 0 0 0 1.543.385c.35-.172.752-.588.606-1.537a12.555 12.555 0 0 0-.388-1.5 16.576 16.576 0 0 1-.857-3.507c-.055-1.315.464-1.488.809-1.563.579-.127 1.065.508 1.526 1.3.55.952 1.494 2.637 2.264 3.924a4.4 4.4 0 0 0 4.036 2.321 4.336 4.336 0 0 0 4.444-3.409 41.79 41.79 0 0 1 1.657-4.738c.752-1.66 1.756-2.549 2.6-2.277.784.251.98 1.019.99 2.146a25.469 25.469 0 0 1-.2 2.9 8.391 8.391 0 0 0-.067 1.21 1.33 1.33 0 0 0 1.05 1.389 1.606 1.606 0 0 0 1.639-1.253 6.984 6.984 0 0 0 .226-1.063 19.1 19.1 0 0 0 .183-4.343 15.534 15.534 0 0 0-1.155-5.207 3.58 3.58 0 0 0-2.938-2.47 4.3 4.3 0 0 0-3.948 2.71c-.8 1.7-1.434 3.453-1.821 4.346a2.252 2.252 0 0 1-1.854 1.556 3.023 3.023 0 0 1-2.7-1.794 25.648 25.648 0 0 0-2.409-3.464 3.4 3.4 0 0 0-2.684-1.3z" transform="translate(148.272 -174.613)" style="fill:#fff"/>
    </g>
</svg>
