<svg xmlns="http://www.w3.org/2000/svg" width="30" height="35.427" viewBox="0 0 30 35.427">
    <path data-name="Trazado 875" d="M367.954 126.693H362a1.513 1.513 0 0 1-1.6-1.6v-16.5A1.508 1.508 0 0 1 362 107h7.273a.991.991 0 0 1 .708.3l4.911 4.911a.99.99 0 0 1 .3.708v12.2a1.49 1.49 0 0 1-1.574 1.574c-.373-.004-2.998 0-5.664 0zm-5.536-2.02h10.754v-11.337l-4.322-4.322h-6.437z" transform="translate(-345.189 -101.593)" style="fill:#fff"/>
    <path data-name="Trazado 876" d="M278.439 126.62h-5.909a.755.755 0 0 1 0-1.511h5.909a.755.755 0 1 1 0 1.511zm0 2.947h-5.909a.755.755 0 0 1 0-1.511h5.909a.755.755 0 1 1 0 1.511zm0 2.947h-5.909a.755.755 0 0 1 0-1.511h5.909a.755.755 0 0 1 0 1.511zm2.952-8.588h-1.967a3.6 3.6 0 0 1-3.954-3.954V118a1.008 1.008 0 0 1 2.015 0v1.967a1.635 1.635 0 0 0 1.939 1.939h1.967a1.008 1.008 0 1 1 0 2.015zm-16.7 14.884a1.353 1.353 0 0 0-1.5 1.5 1.5 1.5 0 1 0 2.99 0 1.355 1.355 0 0 0-1.5-1.5z" transform="translate(-252.882 -111.089)" style="fill:#fff"/>
    <path data-name="Trazado 877" d="M255.293 544.11a1.847 1.847 0 0 1-1.995-2 2 2 0 1 1 3.481 1.456 2.04 2.04 0 0 1-1.486.548zm0-3c-.685 0-.992.308-.992 1a1.053 1.053 0 0 0 .231.751 1.038 1.038 0 0 0 .755.247 1 1 0 0 0 .755-.247 1.053 1.053 0 0 0 .231-.751c.007-.694-.295-1.01-.98-1.001z" transform="translate(-243.481 -512.879)" style="fill:#fff"/>
    <path data-name="Trazado 878" d="M76.1 35.4H64.318a6.008 6.008 0 0 1-4.432-1.46 5.978 5.978 0 0 1-1.486-4.453V5.913a5.986 5.986 0 0 1 1.476-4.432A5.971 5.971 0 0 1 64.318 0H76.1a5.947 5.947 0 0 1 4.437 1.516 5.953 5.953 0 0 1 1.481 4.4 1.007 1.007 0 1 1-2.014 0c0-2.771-1.133-3.9-3.9-3.9H64.318A4.139 4.139 0 0 0 61.3 2.9a4.134 4.134 0 0 0-.887 3.012v23.575c0 2.846 1.058 3.9 3.9 3.9H76.1c2.846 0 3.9-1.058 3.9-3.9V24.4a1.007 1.007 0 1 1 2.014 0v5.087a6 6 0 0 1-1.486 4.458A5.961 5.961 0 0 1 76.1 35.4z" transform="translate(-58.4 .022)" style="fill:#fff"/>
</svg>
