<svg xmlns="http://www.w3.org/2000/svg" width="30" height="33.766" viewBox="0 0 30 33.766">
    <path data-name="Trazado 868" d="M155.982 201.653a.368.368 0 0 1-.182-.331.348.348 0 0 1 .355-.341.506.506 0 0 1 .259.086 4.063 4.063 0 0 0 2.213.734c1.335 0 2.151-.686 2.151-1.7 0-.83-.466-1.421-1.992-1.613l-.394-.048c-1.627-.206-2.386-.989-2.386-2.2a2.315 2.315 0 0 1 2.607-2.338 4.078 4.078 0 0 1 2.141.552.412.412 0 0 1 .23.341.328.328 0 0 1-.326.331.556.556 0 0 1-.244-.075 3.716 3.716 0 0 0-1.824-.49c-1.21 0-1.887.675-1.887 1.613 0 .854.525 1.407 1.959 1.589l.38.048c1.656.206 2.439.989 2.439 2.237 0 1.407-1 2.41-2.938 2.41a4.586 4.586 0 0 1-2.557-.8z" transform="translate(-150.188 -184.574)" style="fill:#fff"/>
    <path data-name="Trazado 869" d="M151.4 195.585a4.955 4.955 0 0 1-2.765-.874.725.725 0 0 1-.336-.624.7.7 0 0 1 .715-.7.854.854 0 0 1 .456.144 3.638 3.638 0 0 0 2.016.675c1.1 0 1.791-.514 1.791-1.34 0-.542-.2-1.07-1.68-1.258l-.389-.048c-2.233-.288-2.7-1.551-2.7-2.559a2.666 2.666 0 0 1 2.967-2.7 4.509 4.509 0 0 1 2.333.605.75.75 0 0 1 .4.648.689.689 0 0 1-.691.691.888.888 0 0 1-.4-.11h-.01a3.365 3.365 0 0 0-1.65-.45c-.956 0-1.527.47-1.527 1.253 0 .331 0 1.022 1.642 1.234l.379.048c2.271.288 2.751 1.57 2.751 2.6a2.574 2.574 0 0 1-.869 2.007 3.661 3.661 0 0 1-2.434.765zm-2.353-1.464a3.882 3.882 0 0 0 .581.336 4.78 4.78 0 0 1-.562-.331.1.1 0 0 0-.038-.02zm3.279-3.111a2.187 2.187 0 0 1 1.445.926 2.083 2.083 0 0 0-1.445-.926zm-2.986-1.325a1.831 1.831 0 0 0 1.4 1.056 2 2 0 0 1-1.4-1.056z" transform="translate(-143.048 -177.34)" style="fill:#fff"/>
    <path data-name="Trazado 870" d="M203 175a.6.6 0 0 1-.6-.6v-10.3a.6.6 0 0 1 1.2 0v10.3a.6.6 0 0 1-.6.6z" transform="translate(-194.551 -155.634)" style="fill:#fff"/>
    <path data-name="Trazado 871" d="M47.35 123.9a8.607 8.607 0 0 1-6.193-2.093c-1.5-1.445-2.257-3.581-2.257-6.356s.758-4.911 2.257-6.356A8.609 8.609 0 0 1 47.35 107a8.609 8.609 0 0 1 6.193 2.093c1.5 1.445 2.257 3.581 2.257 6.356s-.758 4.911-2.257 6.356a8.61 8.61 0 0 1-6.193 2.095zm0-14.979a6.789 6.789 0 0 0-4.859 1.555 8.238 8.238 0 0 0 0 9.948 6.788 6.788 0 0 0 4.859 1.555 6.8 6.8 0 0 0 4.858-1.555 8.238 8.238 0 0 0 0-9.948 6.782 6.782 0 0 0-4.858-1.556z" transform="translate(-38.9 -101.847)" style="fill:#fff"/>
    <path data-name="Trazado 872" d="M211.67 33.745h-11.235a5.728 5.728 0 0 1-4.225-1.392 5.716 5.716 0 0 1-1.416-4.249v-6.482a.96.96 0 1 1 1.92 0V28.1c0 2.713 1.008 3.721 3.721 3.721h11.235c2.713 0 3.721-1.008 3.721-3.721V5.635a3.961 3.961 0 0 0-.845-2.871 3.936 3.936 0 0 0-2.875-.85h-11.236c-2.641 0-3.721 1.08-3.721 3.721a.96.96 0 1 1-1.92 0 5.681 5.681 0 0 1 1.411-4.2 5.669 5.669 0 0 1 4.229-1.445h11.236a5.682 5.682 0 0 1 4.23 1.421 5.692 5.692 0 0 1 1.406 4.225V28.1a5.717 5.717 0 0 1-1.416 4.249 5.682 5.682 0 0 1-4.22 1.396z" transform="translate(-187.31 .022)" style="fill:#fff"/>
    <path data-name="Trazado 873" d="M401.022 550a1.289 1.289 0 0 0-1.425 1.431 1.429 1.429 0 1 0 2.85 0 1.289 1.289 0 0 0-1.425-1.431z" transform="translate(-382.28 -523.576)" style="fill:#fff"/>
    <path data-name="Trazado 874" d="M391.6 543.928a1.76 1.76 0 0 1-1.9-1.911 1.909 1.909 0 1 1 3.317 1.388 1.937 1.937 0 0 1-1.417.523zm0-2.861c-.653 0-.946.292-.946.95a1 1 0 0 0 .22.716.989.989 0 0 0 .72.235.956.956 0 0 0 .72-.235 1.006 1.006 0 0 0 .22-.716c.013-.661-.283-.958-.935-.954z" transform="translate(-372.856 -514.156)" style="fill:#fff"/>
</svg>
