<svg xmlns="http://www.w3.org/2000/svg" width="20" height="20" viewBox="0 0 20 20">
    <path data-name="Refrescar recargar pagina_2Regular" d="M12.631 6.711a.577.577 0 0 0 .529.33h.034L19.1 6.7a.568.568 0 0 0 .544-.524L20 .569a.562.562 0 0 0-.34-.547.6.6 0 0 0-.646.111L16.4 2.621A10.274 10.274 0 0 0 10.092.466 9.936 9.936 0 0 0 0 10.22a9.936 9.936 0 0 0 10.089 9.753 10.13 10.13 0 0 0 9.454-6.347.831.831 0 0 0-.487-1.07l-.026-.009a.879.879 0 0 0-1.118.492 8.384 8.384 0 0 1-7.824 5.254 8.222 8.222 0 0 1-8.35-8.074 8.226 8.226 0 0 1 8.35-8.077 8.509 8.509 0 0 1 5.07 1.658L12.75 6.084a.543.543 0 0 0-.12.626" transform="translate(0 .027)" style="fill:#019df4;fill-rule:evenodd"/>
</svg>
