<svg xmlns="http://www.w3.org/2000/svg" width="22.105" height="30" viewBox="0 0 22.105 30">
    <path data-name="Trazado 1778" d="M395.866 423.737a.338.338 0 0 1-.166-.3.321.321 0 0 1 .32-.312.465.465 0 0 1 .235.077 3.672 3.672 0 0 0 2.01.666c1.212 0 1.954-.623 1.954-1.545 0-.755-.422-1.289-1.809-1.464l-.354-.043c-1.477-.188-2.164-.9-2.164-2a2.1 2.1 0 0 1 2.364-2.121 3.719 3.719 0 0 1 1.942.5.374.374 0 0 1 .209.312.3.3 0 0 1-.3.3.518.518 0 0 1-.222-.068 3.394 3.394 0 0 0-1.656-.444c-1.1 0-1.707.61-1.707 1.464 0 .777.478 1.276 1.775 1.442l.346.043c1.5.188 2.211.9 2.211 2.031 0 1.276-.909 2.185-2.663 2.185a4.066 4.066 0 0 1-2.326-.725z" transform="translate(-382.757 -398.918)" style="fill:#fff"/>
    <path data-name="Trazado 1779" d="M391.008 417.515a4.489 4.489 0 0 1-2.5-.789.658.658 0 0 1-.3-.563.64.64 0 0 1 .64-.632.778.778 0 0 1 .41.132 3.3 3.3 0 0 0 1.831.61c1.007 0 1.634-.469 1.634-1.225 0-.5-.184-.977-1.528-1.148l-.354-.043c-2.023-.256-2.445-1.4-2.445-2.317a2.41 2.41 0 0 1 2.684-2.441 4.061 4.061 0 0 1 2.112.546.674.674 0 0 1 .363.585.619.619 0 0 1-.619.619.8.8 0 0 1-.367-.1h-.009a3.036 3.036 0 0 0-1.5-.405c-.871 0-1.387.427-1.387 1.144 0 .461.179.956 1.5 1.127l.346.043c2.057.26 2.488 1.421 2.488 2.347a2.321 2.321 0 0 1-.785 1.814 3.27 3.27 0 0 1-2.214.696zm-2.138-1.315a3.74 3.74 0 0 0 .922.465 4.557 4.557 0 0 1-.892-.469.161.161 0 0 0-.055-.026.072.072 0 0 0 .025.03zm2.637-2.9c1.075.184 1.673.64 1.818 1.378-.183-1.1-1.319-1.31-1.818-1.378zm-2.467-1.519c.1.811.7 1.28 1.831 1.434-1.109-.181-1.711-.65-1.83-1.431z" transform="translate(-375.577 -391.642)" style="fill:#fff"/>
    <path data-name="Trazado 1780" d="M205.147 36.022a.639.639 0 0 1-.64-.64v-9.239a.64.64 0 1 1 1.28 0v9.239a.639.639 0 0 1-.64.64zm-10.293-.3a.856.856 0 0 1-.854-.852V17.463a.853.853 0 0 1 1.707 0V34.87a.856.856 0 0 1-.854.853zm4.2.021a.856.856 0 0 1-.853-.853V24.142a.853.853 0 0 1 1.707 0v10.75a.851.851 0 0 1-.851.853zm11.432-16.216h-4.161a4.784 4.784 0 0 1-5.014-5.014v-4.16a.853.853 0 1 1 1.707 0v4.161a3.314 3.314 0 0 0 .9 2.411 3.321 3.321 0 0 0 2.411.9h4.161a.853.853 0 0 1 0 1.707z" transform="translate(-189.664 -9.095)" style="fill:#fff"/>
    <path data-name="Trazado 1781" d="M112.82 30H94.086a1.732 1.732 0 0 1-1.686-1.686V1.686A1.776 1.776 0 0 1 94.086 0h11.244a.863.863 0 0 1 .589.235l8.321 7.895a.849.849 0 0 1 .265.619v19.565A1.732 1.732 0 0 1 112.82 30zm-18.692-1.707h18.662l.009-.009V9.115l-7.809-7.408H94.141a.13.13 0 0 0-.034.034v26.535a.093.093 0 0 0 .021.017z" style="fill:#fff" transform="translate(-92.4)"/>
</svg>
