<svg xmlns="http://www.w3.org/2000/svg" width="30" height="30" viewBox="0 0 30 30">
    <g data-name="Grupo 2317">
        <path data-name="Documento_Archivo ok_2Regular (3)" d="M28.27 28V10.551h-3.522A5.4 5.4 0 0 1 20.9 9.1a5.15 5.15 0 0 1-1.5-3.783V1.94H9.451a.4.4 0 0 0-.295.256v6.02a7.056 7.056 0 0 1 3.377 1.4 3.682 3.682 0 0 0 3.01.884.944.944 0 0 1 .76.209.923.923 0 0 1 .329.687c0 .111 0 1.49-.051 3.172h8.1a.922.922 0 0 1 0 1.844h-8.16c-.038.909-.1 1.819-.184 2.6H24.7a.922.922 0 0 1 0 1.844h-8.755a7.983 7.983 0 0 1-1.994 2.544H24.7a.922.922 0 0 1 0 1.844H11.466c-.944.6-1.81 1.059-2.31 1.315v1.452a.34.34 0 0 0 .295.256h18.516a.33.33 0 0 0 .3-.265zM2.33 19.67c.307 1.767 3.706 4.043 6.028 5.208 2.322-1.166 5.738-3.441 6.041-5.208a36.208 36.208 0 0 0 .307-3.65c.047-1.375.073-2.754.085-3.637a5.815 5.815 0 0 1-3.279-1.23 5.025 5.025 0 0 0-3.155-1.144A5.054 5.054 0 0 0 5.2 11.153 5.922 5.922 0 0 1 1.938 12.4a61.086 61.086 0 0 0 .392 7.27zm18.9-17.043v2.69a3.316 3.316 0 0 0 .952 2.459 3.565 3.565 0 0 0 2.57.935H27.5l-6.274-6.084zm8.47 5.666a1.269 1.269 0 0 1 .406.944V28a2.152 2.152 0 0 1-2.139 2.1H9.451A2.167 2.167 0 0 1 7.325 28v-1.572c-1.772-.935-6.284-3.552-6.8-6.438A69.471 69.471 0 0 1 .11 11.4a.9.9 0 0 1 .354-.726.89.89 0 0 1 .781-.158 3.7 3.7 0 0 0 2.95-.9 7.2 7.2 0 0 1 3.13-1.357V2.2A2.194 2.194 0 0 1 9.451.1h11.275a1.383 1.383 0 0 1 .931.367z" transform="translate(-.106 -.1)" style="fill-rule:evenodd;fill:#fff"/>
        <path d="M1.571.651C1.182.656.465.832.14 2.07a3.921 3.921 0 0 0-.071 1.772A6.419 6.419 0 0 0 .52 5.288a1.257 1.257 0 0 0 .174.272.494.494 0 0 0 .537.125.408.408 0 0 0 .21-.495 3.854 3.854 0 0 0-.137-.484A5.049 5.049 0 0 1 1 3.575c-.02-.424.161-.479.28-.5.2-.041.371.165.532.422.192.307.522.851.791 1.267a1.563 1.563 0 0 0 1.407.751 1.49 1.49 0 0 0 1.544-1.1 12.726 12.726 0 0 1 .579-1.525c.26-.535.609-.82.9-.732.273.082.342.329.346.693a7.616 7.616 0 0 1-.066.936 2.5 2.5 0 0 0-.022.39.437.437 0 0 0 .367.449.551.551 0 0 0 .57-.4 2.109 2.109 0 0 0 .077-.342 5.7 5.7 0 0 0 .06-1.4A4.712 4.712 0 0 0 7.962.8 1.236 1.236 0 0 0 6.937 0a1.5 1.5 0 0 0-1.372.87c-.276.548-.5 1.112-.631 1.4a.767.767 0 0 1-.644.5 1.066 1.066 0 0 1-.942-.581 8.387 8.387 0 0 0-.842-1.119A1.224 1.224 0 0 0 1.57.651" transform="translate(3.887 13.99)" style="fill:#fff"/>
    </g>
</svg>
