<svg xmlns="http://www.w3.org/2000/svg" width="16" height="11.998" viewBox="0 0 16 11.998">
    <path d="M1.163 88.92a.186.186 0 0 0-.182.189v9.579a.186.186 0 0 0 .182.189h13.674a.186.186 0 0 0 .182-.189v-9.579a.186.186 0 0 0-.182-.189zM14.835 99.9H1.163A1.189 1.189 0 0 1 0 98.687v-9.578A1.187 1.187 0 0 1 1.163 87.9h13.674A1.187 1.187 0 0 1 16 89.109v9.579a1.193 1.193 0 0 1-1.165 1.212zM7.2 95.847H2.131a.51.51 0 0 1 0-1.02H7.2a.51.51 0 0 1 0 1.02zm-1.63-2.722H2.131a.51.51 0 0 1 0-1.02h3.441a.51.51 0 0 1 0 1.02zm5.9-2.333a1.461 1.461 0 0 1 1.074.378 1.877 1.877 0 0 1 0 2.294 1.46 1.46 0 0 1-1.074.376 1.46 1.46 0 0 1-1.072-.376 1.882 1.882 0 0 1 0-2.292 1.441 1.441 0 0 1 1.072-.381zm0 .883a.738.738 0 0 0-.48.13 1.059 1.059 0 0 0 0 1.02.7.7 0 0 0 .483.13.714.714 0 0 0 .487-.13 1.054 1.054 0 0 0 0-1.017.752.752 0 0 0-.485-.132zm.895 2.829a1.7 1.7 0 0 1 1.288.5 1.725 1.725 0 0 1 .421 1.2v.496a.17.17 0 0 1-.166.173H9.039a.167.167 0 0 1-.166-.171V96.2a1.735 1.735 0 0 1 .419-1.2 1.7 1.7 0 0 1 1.286-.5zm0 .885h-1.787a.918.918 0 0 0-.674.225.738.738 0 0 0-.168.38H13.2a.714.714 0 0 0-.168-.38.912.912 0 0 0-.672-.225z" transform="translate(0 -87.9)" style="fill:#0b2739;fill-rule:evenodd"/>
</svg>
