<svg xmlns="http://www.w3.org/2000/svg" width="23.502" height="23.502" viewBox="0 0 23.502 23.502">
    <path data-name="TWITTER NEG" d="M0 3.883V19.62a3.883 3.883 0 0 0 3.883 3.88H19.62a3.883 3.883 0 0 0 3.88-3.88V3.883A3.883 3.883 0 0 0 19.62 0H3.883A3.883 3.883 0 0 0 0 3.883zm17.862 4.74v.4a8.954 8.954 0 0 1-13.787 7.562 6.425 6.425 0 0 0 .751.043 6.305 6.305 0 0 0 3.912-1.348 3.174 3.174 0 0 1-2.958-2.187 3.488 3.488 0 0 0 .6.048 3.064 3.064 0 0 0 .848-.106A3.17 3.17 0 0 1 4.7 9.937V9.9a3.16 3.16 0 0 0 1.445.39 3.15 3.15 0 0 1-.963-4.21 8.969 8.969 0 0 0 6.5 3.3 3.025 3.025 0 0 1-.12-.713A3.15 3.15 0 0 1 17.009 6.5a6.445 6.445 0 0 0 2-.761 3.17 3.17 0 0 1-1.387 1.739A6.3 6.3 0 0 0 19.437 7a6.59 6.59 0 0 1-1.575 1.623z" style="fill:#fff"/>
</svg>
